<svg width="32" height="38" viewBox="0 0 32 38" xmlns="http://www.w3.org/2000/svg"><g fill-rule="nonzero" fill="none"><g transform="translate(6.455 3.772)" stroke-width="1.51" stroke="#FFF" fill="#A4C639"><ellipse cx="9.545" cy="8.955" rx="9.545" ry="8.955"/><rect y="6.716" width="19.091" height="19.402" rx="2.308"/></g><g transform="matrix(-1 0 0 1 31 1)" stroke="#FFF" stroke-width=".755" fill="#4D61FC"><rect transform="rotate(29 19.067 4.406)" x="18.386" y="-.178" width="1.364" height="9.168" rx=".682"/><rect y="11.726" width="5.035" height="14.178" rx="2.517"/><rect width="5.035" height="14.178" rx="2.517" transform="translate(8.916 22.067)"/></g><g stroke="#FFF" stroke-width=".755" fill="#4D61FC" transform="translate(1 1)"><rect transform="rotate(29 19.067 4.406)" x="18.386" y="-.178" width="1.364" height="9.168" rx=".682"/><rect y="11.726" width="5.035" height="14.178" rx="2.517"/><rect width="5.035" height="14.178" rx="2.517" transform="translate(8.916 22.067)"/></g><g transform="translate(6.455 3.772)" fill="#4D61FC"><ellipse cx="9.545" cy="8.955" rx="9.545" ry="8.955"/><rect y="6.716" width="19.091" height="19.402" rx="2.308"/></g><g fill="#FFF"><path d="M6.035 13.483h19.93v-.767H6.035zM11.594 9.166a.804.804 0 0 1-.797-.81c0-.448.357-.81.797-.81.44 0 .798.362.798.81 0 .447-.357.81-.798.81zm0-.768c.024 0 .042-.019.042-.042a.042.042 0 0 0-.042-.043.042.042 0 0 0-.042.043c0 .023.02.042.042.042zM20.406 9.166a.804.804 0 0 1-.798-.81c0-.448.357-.81.798-.81.44 0 .797.362.797.81 0 .447-.357.81-.797.81zm0-.768a.042.042 0 1 0 0-.085.042.042 0 0 0-.042.043c0 .023.018.042.042.042z"/></g></g></svg>