<svg width="361" height="361" viewBox="0 0 361 361" fill="none" xmlns="http://www.w3.org/2000/svg">
<path fill-rule="evenodd" clip-rule="evenodd" d="M360 112.61C360 108.31 360 104.01 359.98 99.71C359.96 96.09 359.92 92.47 359.82 88.85C359.61 80.96 359.14 73.01 357.74 65.21C356.32 57.29 353.99 49.92 350.33 42.72C346.73 35.65 342.03 29.19 336.42 23.58C330.81 17.97 324.34 13.27 317.27 9.67C310.08 6.01 302.71 3.69 294.8 2.26C287 0.86 279.04 0.39 271.15 0.18C267.53 0.08 263.91 0.04 260.29 0.02C255.99 0 251.69 0 247.39 0H112.61C108.31 0 104.01 0 99.71 0.02C96.09 0.04 92.47 0.08 88.85 0.18C80.96 0.4 73 0.86 65.2 2.27C57.28 3.69 49.92 6.02 42.73 9.68C35.66 13.28 29.19 17.98 23.58 23.59C17.97 29.2 13.27 35.66 9.67 42.73C6.01 49.93 3.68 57.3 2.26 65.22C0.86 73.02 0.39 80.98 0.18 88.86C0.08 92.48 0.04 96.1 0.02 99.72C0 104.01 0 108.31 0 112.61V247.38C0 251.68 0 255.98 0.02 260.28C0.04 263.9 0.08 267.52 0.18 271.14C0.39 279.03 0.86 286.98 2.26 294.78C3.68 302.7 6.01 310.07 9.67 317.27C13.27 324.34 17.97 330.8 23.58 336.41C29.19 342.02 35.66 346.72 42.73 350.32C49.92 353.98 57.29 356.3 65.2 357.73C73 359.13 80.96 359.6 88.85 359.81C92.47 359.91 96.09 359.95 99.71 359.97C104.01 360 108.31 359.99 112.61 359.99H247.38C251.68 359.99 255.98 359.99 260.28 359.97C263.9 359.95 267.52 359.91 271.14 359.81C279.03 359.6 286.99 359.13 294.79 357.73C302.71 356.31 310.07 353.98 317.26 350.32C324.33 346.72 330.8 342.02 336.41 336.41C342.02 330.8 346.72 324.34 350.32 317.27C353.98 310.07 356.31 302.7 357.73 294.78C359.13 286.98 359.6 279.02 359.81 271.14C359.91 267.52 359.95 263.9 359.97 260.28C360 255.98 359.99 251.68 359.99 247.38V112.61H360Z" fill="url(#paint0_linear_1_19)"/>
<path fill-rule="evenodd" clip-rule="evenodd" d="M254.5 55C253.63 55.08 245.9 56.45 244.97 56.64L137.97 78.23L137.93 78.24C135.14 78.83 132.95 79.82 131.26 81.24C129.22 82.95 128.09 85.37 127.66 88.19C127.57 88.79 127.42 90.01 127.42 91.81C127.42 91.81 127.42 201.13 127.42 225.73C127.42 228.86 127.17 231.9 125.05 234.49C122.93 237.08 120.31 237.86 117.24 238.48C114.91 238.95 112.58 239.42 110.25 239.89C101.41 241.67 95.66 242.88 90.45 244.9C85.47 246.83 81.74 249.29 78.77 252.41C72.88 258.58 70.49 266.95 71.31 274.79C72.01 281.48 75.02 287.88 80.19 292.61C83.68 295.81 88.04 298.24 93.18 299.27C98.51 300.34 104.19 299.97 112.49 298.29C116.91 297.4 121.05 296.01 124.99 293.68C128.89 291.38 132.23 288.31 134.84 284.57C137.46 280.82 139.15 276.65 140.08 272.22C141.04 267.65 141.27 263.52 141.27 258.96V142.81C141.27 136.59 143.03 134.95 148.05 133.73C148.05 133.73 236.99 115.79 241.14 114.98C246.93 113.87 249.66 115.52 249.66 121.59V200.88C249.66 204.02 249.63 207.2 247.49 209.8C245.37 212.39 242.75 213.17 239.68 213.79C237.35 214.26 235.02 214.73 232.69 215.2C223.85 216.98 218.1 218.19 212.89 220.21C207.91 222.14 204.18 224.6 201.21 227.72C195.32 233.89 192.72 242.26 193.54 250.1C194.24 256.79 197.46 263.19 202.63 267.92C206.12 271.12 210.48 273.48 215.62 274.52C220.95 275.59 226.63 275.21 234.93 273.54C239.35 272.65 243.49 271.32 247.43 268.99C251.33 266.69 254.67 263.62 257.28 259.88C259.9 256.13 261.59 251.96 262.52 247.53C263.48 242.96 263.52 238.83 263.52 234.27V64.46C263.54 58.3 260.29 54.5 254.5 55Z" fill="white"/>
<defs>
<linearGradient id="paint0_linear_1_19" x1="180" y1="358.605" x2="180" y2="7.75858" gradientUnits="userSpaceOnUse">
<stop stop-color="#FA233B"/>
<stop offset="1" stop-color="#FB5C74"/>
</linearGradient>
</defs>
</svg>
