<?xml version="1.0" encoding="UTF-8"?>
<svg width="364px" height="364px" viewBox="0 0 364 364" version="1.1" xmlns="http://www.w3.org/2000/svg" xmlns:xlink="http://www.w3.org/1999/xlink">
    <!-- Generator: Sketch 64 (93537) - https://sketch.com -->
    <title>link</title>
    <desc>Created with Sketch.</desc>
    <g id="Page-1" stroke="none" stroke-width="1" fill="none" fill-rule="evenodd">
        <g id="link" transform="translate(5.000000, 5.000000)" fill="#4D61FC" fill-rule="nonzero" stroke="#FFFFFF" stroke-width="10">
            <path d="M325.69449,27.59379 C288.90024,-9.1908 229.25043,-9.1908 192.46653,27.59379 L139.89957,80.14005 C144.06096,79.68741 148.26582,79.49283 152.49207,79.49283 C165.79527,79.49283 178.73139,81.6063 190.9782,85.68075 L220.7655,55.9038 C230.99613,45.66213 244.60155,40.03449 259.06947,40.03449 C273.53877,40.03449 287.14419,45.66213 297.37482,55.9038 C307.60614,66.12408 313.23171,79.70811 313.23171,94.19742 C313.23171,108.66534 307.60614,122.27076 297.37482,132.49104 L239.09397,190.77258 C228.86403,201.01494 215.25792,206.6412 200.79,206.6412 C186.3,206.6412 172.71666,201.01494 162.47568,190.77258 C157.49457,185.81286 153.61401,180.03411 150.94026,173.73786 C144.29901,174.10425 138.0897,176.86425 133.34595,181.60731 L117.82164,197.15232 C122.06928,205.02177 127.52442,212.43927 134.16567,219.10329 C170.94957,255.88926 230.60973,255.88926 267.40398,219.10329 L325.69518,160.80036 C362.46804,124.01784 362.46804,64.37838 325.69449,27.59379 Z" id="Path"></path>
            <path d="M201.41445,273.7644 C188.08917,273.7644 175.02333,271.60815 162.49707,267.36051 L132.50484,297.35412 C122.28456,307.59648 108.67983,313.22343 94.21191,313.22343 C79.74399,313.22343 66.16065,307.59648 55.91829,297.35412 C45.67662,287.13315 40.04898,273.52911 40.04898,259.0605 C40.04898,244.59189 45.67662,230.98578 55.91829,220.74549 L114.19914,162.46464 C124.44081,152.24436 138.02484,146.61672 152.49276,146.61672 C166.98207,146.61672 180.5661,152.24436 190.79604,162.46464 C195.77784,167.44506 199.66737,173.22381 202.35354,179.51937 C209.01618,179.17437 215.23653,176.39298 219.98028,171.64992 L235.4832,156.12561 C231.23556,148.23339 225.76938,140.81658 219.11778,134.15394 C182.33388,97.36935 122.67372,97.36935 85.88982,134.15394 L27.60897,192.45687 C-9.19632,229.24284 -9.19632,288.88023 27.60897,325.68621 C64.39287,362.47218 124.03233,362.47218 160.81554,325.68621 L213.29556,273.2055 C209.38257,273.57051 205.42611,273.76647 201.43653,273.76647 L201.41445,273.7644 L201.41445,273.7644 Z" id="Path"></path>
        </g>
    </g>
</svg>