<svg width="451" height="510" viewBox="0 0 451 510" fill="none" xmlns="http://www.w3.org/2000/svg">
<path d="M153.1 264.4C112.5 264.4 79.7001 297.2 80.3001 337.4C80.7001 363.2 94.9001 385.6 115.8 398.1C108.7 387.2 104.5 374.3 104.3 360.4C103.7 320.2 136.5 287.4 177.1 287.4C185.1 287.4 192.8 288.7 200 291V210.5C192.5 209.4 184.8 208.8 177.1 208.8C176.7 208.8 176.4 208.8 176 208.8V268C168.8 265.7 161.1 264.4 153.1 264.4V264.4Z" fill="#F00044"/>
<path d="M328.6 23H328H307.2C313.2 53.1 330.1 79.3 353.7 97.1C338.2 76.6 328.8 51 328.6 23V23Z" fill="#F00044"/>
<path d="M451 145.5C443.1 145.5 435.5 144.7 428 143.3V201C400.8 201 374.4 195.7 349.6 185.1C333.6 178.3 318.7 169.6 305 159.1L305.4 337C305.2 377 289.4 414.5 260.8 442.8C237.5 465.8 208 480.5 176 485.2C168.5 486.3 160.8 486.9 153.1 486.9C118.9 486.9 86.3 475.8 59.8 455.3C62.8 458.9 66 462.4 69.5 465.8C98.3 494.2 136.5 509.9 177.2 509.9C184.9 509.9 192.6 509.3 200.1 508.2C232.1 503.5 261.6 488.8 284.9 465.8C313.5 437.5 329.3 400 329.5 360L328 182.1C341.6 192.6 356.5 201.4 372.6 208.1C397.5 218.6 423.9 224 451 224" fill="#F00044"/>
<path d="M69.2 253.1C97.7 224.8 135.6 209.1 176 208.8V187.5C168.5 186.4 160.8 185.8 153.1 185.8C112.3 185.8 74 201.5 45.2 230.1C16.9 258.2 0.700021 296.6 0.800021 336.5C0.800021 376.7 16.7 414.4 45.4 442.9C50 447.4 54.7 451.6 59.7 455.4C37.1 428.5 24.8 394.9 24.7 359.5C24.8 319.6 40.9 281.2 69.2 253.1V253.1Z" fill="#08FFF9"/>
<path d="M428 143.3V121.9H427.8C400 121.9 374.4 112.7 353.8 97.1C371.7 120.7 397.9 137.5 428 143.3Z" fill="#08FFF9"/>
<path d="M173 431.2C182.5 431.7 191.6 430.4 200 427.7C229 418.2 249.9 391.2 249.9 359.4L250 240.4V23H307.2C305.7 15.5 304.9 7.9 304.8 0H226V217.3L225.9 336.3C225.9 368.1 205 395.1 176 404.6C167.6 407.4 158.5 408.7 149 408.1C136.9 407.4 125.6 403.8 115.8 398C128.1 417 149.1 429.9 173 431.2V431.2Z" fill="#08FFF9"/>
<path d="M176 485.2C208 480.5 237.5 465.8 260.8 442.8C289.4 414.5 305.2 377 305.4 337L305 159.1C318.6 169.6 333.5 178.4 349.6 185.1C374.5 195.6 400.9 201 428 201V143.3C397.9 137.5 371.7 120.7 353.8 97.1C330.2 79.3 313.2 53.1 307.3 23H250V240.3L249.9 359.3C249.9 391.1 229 418.1 200 427.6C191.6 430.4 182.5 431.7 173 431.1C149 429.8 128.1 416.9 115.8 398C94.9 385.6 80.7 363.1 80.3 337.3C79.7 297.1 112.5 264.3 153.1 264.3C161.1 264.3 168.8 265.6 176 267.9V208.7C135.6 209 97.7 224.7 69.2 253C40.9 281.1 24.7 319.5 24.8 359.3C24.8 394.7 37.1 428.3 59.8 455.2C86.4 475.7 118.9 486.8 153.1 486.8C160.8 486.9 168.5 486.3 176 485.2V485.2Z" fill="black"/>
</svg>
