<svg width="361" height="361" viewBox="0 0 361 361" fill="none" xmlns="http://www.w3.org/2000/svg">
<path fill-rule="evenodd" clip-rule="evenodd" d="M359.98 99.71C359.96 96.09 359.92 92.47 359.82 88.85C359.61 80.96 359.14 73.01 357.74 65.21C356.32 57.29 353.99 49.92 350.33 42.72C346.73 35.65 342.03 29.19 336.42 23.58C330.81 17.97 324.34 13.27 317.27 9.67C310.08 6.01 302.71 3.69 294.8 2.26C287 0.86 279.04 0.39 271.15 0.18C267.53 0.08 263.91 0.04 260.29 0.02C255.99 0 251.69 0 247.39 0H112.61C108.31 0 104.01 0 99.71 0.02C96.09 0.04 92.47 0.08 88.85 0.18C80.96 0.4 73 0.86 65.2 2.27C57.28 3.69 49.92 6.02 42.73 9.68C35.66 13.28 29.19 17.98 23.58 23.59C17.97 29.2 13.27 35.66 9.67 42.73C6.01 49.93 3.68 57.3 2.26 65.22C0.86 73.02 0.39 80.98 0.18 88.86C0.08 92.48 0.04 96.1 0.02 99.72C0 104.01 0 108.31 0 112.61V247.38C0 251.68 0 255.98 0.02 260.28C0.04 263.9 0.08 267.52 0.18 271.14C0.39 279.03 0.86 286.98 2.26 294.78C3.68 302.7 6.01 310.07 9.67 317.27C13.27 324.34 17.97 330.8 23.58 336.41C29.19 342.02 35.66 346.72 42.73 350.32C49.92 353.98 57.29 356.3 65.2 357.73C73 359.13 80.96 359.6 88.85 359.81C92.47 359.91 96.09 359.95 99.71 359.97C104.01 360 108.31 359.99 112.61 359.99H247.38C251.68 359.99 255.98 359.99 260.28 359.97C263.9 359.95 267.52 359.91 271.14 359.81C279.03 359.6 286.99 359.13 294.79 357.73C302.71 356.31 310.07 353.99 317.26 350.32C324.33 346.72 330.8 342.02 336.41 336.41C342.02 330.8 346.72 324.34 350.32 317.27C353.98 310.07 356.31 302.7 357.73 294.78C359.13 286.98 359.6 279.02 359.81 271.14C359.91 267.52 359.95 263.9 359.97 260.28C360 255.98 359.99 251.68 359.99 247.38V112.61C360 108.31 360 104.01 359.98 99.71ZM263.54 234.26C263.54 238.82 263.5 242.96 262.54 247.52C261.61 251.95 259.91 256.12 257.3 259.87C254.69 263.61 251.35 266.68 247.45 268.98C243.5 271.31 239.37 272.64 234.95 273.53C226.65 275.2 220.98 275.58 215.64 274.51C210.5 273.48 206.14 271.11 202.65 267.91C197.48 263.17 194.26 256.77 193.56 250.09C192.74 242.25 195.35 233.88 201.23 227.71C204.2 224.6 207.93 222.14 212.91 220.2C218.12 218.18 223.87 216.97 232.71 215.19C235.04 214.72 237.37 214.25 239.7 213.78C242.76 213.16 245.39 212.38 247.51 209.79C249.64 207.18 249.68 204.01 249.68 200.87V121.58C249.68 115.51 246.96 113.86 241.16 114.97C237.02 115.78 148.07 133.72 148.07 133.72C143.05 134.93 141.29 136.57 141.29 142.8V258.95C141.29 263.51 141.05 267.65 140.1 272.21C139.17 276.64 137.47 280.81 134.86 284.56C132.25 288.3 128.91 291.37 125.01 293.67C121.06 296 116.93 297.39 112.51 298.28C104.21 299.95 98.54 300.33 93.2 299.26C88.06 298.23 83.7 295.79 80.21 292.6C75.04 287.86 72.04 281.46 71.33 274.78C70.51 266.94 72.9 258.57 78.79 252.4C81.76 249.29 85.49 246.83 90.47 244.89C95.68 242.87 101.43 241.66 110.27 239.88C112.6 239.41 114.93 238.94 117.26 238.47C120.32 237.85 122.95 237.07 125.07 234.48C127.19 231.89 127.44 228.84 127.44 225.72C127.44 201.12 127.44 91.8 127.44 91.8C127.44 90 127.59 88.78 127.68 88.18C128.11 85.36 129.24 82.94 131.28 81.23C132.98 79.81 135.16 78.82 137.95 78.23L137.99 78.22L244.99 56.63C245.92 56.44 253.65 55.07 254.52 54.99C260.3 54.49 263.55 58.29 263.55 64.45V234.26H263.54Z" fill="white"/>
</svg>
