<svg width="512" height="512" viewBox="0 0 512 512" fill="none" xmlns="http://www.w3.org/2000/svg">
<g clip-path="url(#clip0)">
<path d="M188.651 269.888C158.955 269.888 134.869 293.973 134.869 323.669V458.197C134.869 487.893 158.955 511.979 188.651 511.979C218.347 511.979 242.432 487.893 242.432 458.197V323.669C242.411 293.973 218.325 269.888 188.651 269.888Z" fill="white"/>
<path d="M0.405334 323.669C0.405334 353.387 24.512 377.493 54.2293 377.493C83.9467 377.493 108.053 353.387 108.053 323.669V269.845H54.272C54.2507 269.845 54.2507 269.845 54.2293 269.845C24.512 269.845 0.405334 293.952 0.405334 323.669Z" fill="white"/>
<path d="M188.715 -0.0213318C188.693 -0.0213318 188.672 -0.0213318 188.651 -0.0213318C158.933 -0.0213318 134.827 24.0853 134.827 53.8027C134.827 83.52 158.933 107.627 188.651 107.627H242.432C242.432 77.0987 242.432 84.5227 242.432 53.696C242.411 24.0213 218.368 -0.0213318 188.715 -0.0213318Z" fill="white"/>
<path d="M53.8667 242.56H188.651C218.368 242.56 242.475 218.453 242.475 188.736C242.475 159.019 218.368 134.912 188.651 134.912H53.8667C24.1493 134.912 0.0426636 159.019 0.0426636 188.736C0.0426636 218.453 24.1493 242.56 53.8667 242.56Z" fill="white"/>
<path d="M457.749 134.891C428.075 134.891 404.032 158.933 404.032 188.608V188.715V242.539H457.813C487.531 242.539 511.637 218.432 511.637 188.715C511.637 158.997 487.531 134.891 457.813 134.891C457.792 134.891 457.771 134.891 457.749 134.891Z" fill="white"/>
<path d="M269.675 53.8027V188.736C269.675 218.432 293.76 242.517 323.456 242.517C353.152 242.517 377.237 218.432 377.237 188.736V53.8027C377.237 24.1067 353.152 0.0213318 323.456 0.0213318C293.76 0.0213318 269.675 24.1067 269.675 53.8027Z" fill="white"/>
<path d="M377.216 458.155C377.216 428.459 353.131 404.373 323.435 404.373H269.653V458.197C269.675 487.872 293.739 511.936 323.435 511.936C353.131 511.936 377.216 487.851 377.216 458.155Z" fill="white"/>
<path d="M458.219 269.845H323.435C293.717 269.845 269.611 293.952 269.611 323.669C269.611 353.387 293.717 377.493 323.435 377.493H458.219C487.936 377.493 512.043 353.387 512.043 323.669C512.043 293.952 487.936 269.845 458.219 269.845Z" fill="white"/>
</g>
<defs>
<clipPath id="clip0">
<rect width="512" height="512" fill="white"/>
</clipPath>
</defs>
</svg>
