<svg width="450" height="512" viewBox="0 0 450 512" fill="none" xmlns="http://www.w3.org/2000/svg">
<path d="M449.32 128.39C420.1 128.39 393.14 118.71 371.49 102.38C346.66 83.66 328.82 56.2 322.52 24.55C320.96 16.73 320.12 8.66 320.04 0.389999H236.57V228.47L236.47 353.4C236.47 386.8 214.72 415.12 184.57 425.08C175.82 427.97 166.37 429.34 156.53 428.8C143.97 428.11 132.2 424.32 121.97 418.2C100.2 405.18 85.44 381.56 85.04 354.54C84.41 312.31 118.55 277.88 160.75 277.88C169.08 277.88 177.08 279.24 184.57 281.71V219.37V196.96C176.67 195.79 168.63 195.18 160.5 195.18C114.31 195.18 71.11 214.38 40.23 248.97C16.89 275.11 2.89002 308.46 0.730024 343.43C-2.09998 389.37 14.71 433.04 47.31 465.26C52.1 469.99 57.13 474.38 62.39 478.43C90.34 499.94 124.51 511.6 160.5 511.6C168.63 511.6 176.67 511 184.57 509.83C218.19 504.85 249.21 489.46 273.69 465.26C303.77 435.53 320.39 396.06 320.57 354.05L320.14 167.49C334.49 178.56 350.18 187.72 367.02 194.83C393.21 205.88 420.98 211.48 449.56 211.47V150.86V128.37C449.58 128.39 449.34 128.39 449.32 128.39V128.39Z" fill="white"/>
</svg>
