<svg width="97" height="26" viewBox="0 0 97 26" xmlns="http://www.w3.org/2000/svg"><g fill="#FFF" fill-rule="evenodd"><path d="M16.277 11.933c-.026-2.808 2.377-4.175 2.487-4.238-1.361-1.92-3.47-2.182-4.212-2.203-1.771-.18-3.49 1.026-4.392 1.026-.92 0-2.31-1.009-3.808-.979-1.927.029-3.73 1.108-4.72 2.785-2.04 3.418-.518 8.442 1.437 11.205.978 1.354 2.121 2.864 3.617 2.811 1.464-.058 2.01-.903 3.777-.903 1.75 0 2.263.903 3.788.868 1.571-.023 2.56-1.358 3.504-2.725 1.13-1.549 1.584-3.078 1.602-3.157-.036-.011-3.05-1.124-3.08-4.49M13.395 3.674c.787-.952 1.326-2.248 1.176-3.563-1.14.05-2.564.763-3.384 1.694-.726.821-1.375 2.166-1.207 3.432 1.28.092 2.594-.625 3.415-1.563M36.325 22.492h-2l-1.095-3.397h-3.807l-1.043 3.397h-1.947l3.773-11.563h2.33l3.79 11.563zM32.9 17.67l-.99-3.018c-.105-.31-.302-1.036-.591-2.179h-.035a91.945 91.945 0 0 1-.557 2.18l-.974 3.017H32.9zM46.01 18.22c0 1.418-.39 2.54-1.172 3.362-.699.732-1.568 1.098-2.604 1.098-1.12 0-1.924-.393-2.413-1.183v4.374h-1.877v-8.976c0-.891-.024-1.804-.07-2.74h1.651l.105 1.322h.035c.626-.997 1.576-1.495 2.851-1.495.997 0 1.83.389 2.495 1.166.665.78.998 1.803.998 3.072zm-1.913.068c0-.811-.185-1.48-.557-2.007-.406-.548-.95-.824-1.634-.824-.463 0-.884.153-1.26.456-.377.303-.623.7-.739 1.193a2.377 2.377 0 0 0-.087.563v1.392c0 .604.189 1.116.565 1.535.377.417.867.626 1.47.626.706 0 1.257-.27 1.65-.806.395-.538.592-1.247.592-2.128zM55.727 18.22c0 1.418-.39 2.54-1.17 3.362-.7.732-1.569 1.098-2.606 1.098-1.118 0-1.923-.393-2.413-1.183v4.374h-1.877v-8.976c0-.891-.024-1.804-.07-2.74h1.652l.104 1.322h.036c.625-.997 1.575-1.495 2.85-1.495.996 0 1.83.389 2.496 1.166.664.78.998 1.803.998 3.072zm-1.913.068c0-.811-.186-1.48-.557-2.007-.405-.548-.95-.824-1.633-.824-.463 0-.884.153-1.261.456-.376.303-.623.7-.738 1.193a2.432 2.432 0 0 0-.088.563v1.392c0 .604.189 1.116.564 1.535.377.416.866.626 1.47.626.708 0 1.259-.27 1.651-.806.395-.538.592-1.247.592-2.128zM66.593 19.25c0 .983-.348 1.783-1.042 2.4-.762.675-1.827 1.013-3.192 1.013-1.26 0-2.271-.24-3.034-.72l.434-1.544c.824.48 1.728.72 2.712.72.708 0 1.259-.157 1.651-.471.395-.315.593-.735.593-1.26 0-.47-.164-.864-.488-1.185-.325-.319-.862-.618-1.616-.89-2.051-.756-3.078-1.86-3.078-3.313 0-.948.363-1.725 1.086-2.332.723-.607 1.683-.91 2.877-.91 1.067 0 1.955.183 2.66.549l-.47 1.51c-.665-.354-1.414-.532-2.252-.532-.662 0-1.183.161-1.554.48a1.368 1.368 0 0 0-.471 1.049c0 .456.18.835.54 1.13.312.275.88.573 1.703.893 1.01.402 1.75.869 2.225 1.406.478.537.716 1.207.716 2.006M72.816 15.544h-2.07v4.048c0 1.03.365 1.543 1.096 1.543.335 0 .613-.027.834-.086l.051 1.407c-.37.136-.856.205-1.459.205-.742 0-1.32-.224-1.74-.67-.417-.446-.625-1.194-.625-2.248v-4.202H67.67v-1.39h1.232v-1.527l1.843-.549v2.076h2.07v1.393M82.133 18.254c0 1.282-.37 2.334-1.113 3.157-.776.846-1.808 1.27-3.094 1.27-1.242 0-2.229-.407-2.965-1.218-.736-.812-1.104-1.835-1.104-3.07 0-1.292.381-2.35 1.139-3.173.759-.823 1.782-1.235 3.068-1.235 1.24 0 2.236.407 2.99 1.218.72.788 1.08 1.804 1.08 3.051zm-1.946.043c0-.764-.167-1.419-.503-1.967-.393-.662-.958-.992-1.687-.992-.75 0-1.33.33-1.721.992-.337.548-.504 1.214-.504 2.002 0 .764.167 1.421.504 1.967.406.663.972.994 1.706.994.717 0 1.28-.34 1.687-1.01.345-.561.518-1.22.518-1.986zM88.238 15.783a3.311 3.311 0 0 0-.592-.05c-.66 0-1.171.244-1.53.738-.313.434-.469.983-.469 1.646v4.375H83.77V16.78c0-.96-.019-1.837-.055-2.625h1.635l.07 1.595h.051c.2-.548.51-.99.939-1.32.419-.3.87-.448 1.357-.448.173 0 .33.013.469.034l.002 1.767M96.633 17.928c0 .332-.022.612-.068.84h-5.631c.02.824.294 1.455.816 1.89.475.387 1.09.582 1.842.582.834 0 1.595-.13 2.279-.395l.294 1.286c-.8.343-1.744.515-2.833.515-1.31 0-2.338-.38-3.087-1.14-.746-.76-1.12-1.782-1.12-3.061 0-1.257.346-2.304 1.044-3.139.729-.891 1.714-1.337 2.954-1.337 1.217 0 2.14.446 2.764 1.337.497.707.746 1.582.746 2.622zm-1.79-.48c.013-.55-.11-1.023-.364-1.424-.325-.516-.825-.773-1.495-.773-.615 0-1.114.25-1.495.755-.312.4-.498.882-.555 1.44l3.91.002z"/><g><path d="M32.192 6.259h-.988l-.54-1.723h-1.88l-.516 1.723h-.961L29.17.393h1.15l1.872 5.866zm-1.691-2.446l-.49-1.531a23.097 23.097 0 0 1-.291-1.105h-.018c-.06.252-.146.618-.275 1.105l-.48 1.531H30.5zM36.85 2.03l-1.58 4.229h-.9l-1.53-4.23h.997l.713 2.237c.12.374.223.731.3 1.07h.025c.07-.304.172-.66.3-1.07l.704-2.236h.972M40.214 6.259l-.069-.487h-.026c-.283.392-.695.583-1.219.583-.746 0-1.279-.531-1.279-1.245 0-1.044.893-1.584 2.438-1.584v-.078c0-.556-.292-.835-.867-.835-.412 0-.773.105-1.09.314l-.188-.618c.387-.244.867-.366 1.434-.366 1.09 0 1.64.583 1.64 1.75V5.25c0 .427.018.758.06 1.01l-.834-.001zm-.13-2.107c-1.03 0-1.545.253-1.545.853 0 .444.267.661.636.661.472 0 .91-.365.91-.86v-.654zM43.053 1.333a.549.549 0 0 1-.55-.566.55.55 0 0 1 .567-.557c.318 0 .575.235.566.557 0 .34-.24.566-.583.566zm-.446.697h.927v4.229h-.927v-4.23zM45.181.09h.927v6.169h-.927zM50.048 6.259l-.07-.487h-.025c-.283.392-.695.583-1.219.583-.746 0-1.279-.531-1.279-1.245 0-1.044.893-1.584 2.438-1.584v-.078c0-.556-.292-.835-.867-.835-.412 0-.773.105-1.09.314l-.189-.62c.387-.243.867-.365 1.434-.365 1.09 0 1.641.583 1.641 1.75v1.557c0 .427.018.758.058 1.01h-.832zm-.13-2.107c-1.03 0-1.544.253-1.544.853 0 .444.266.661.635.661.472 0 .91-.365.91-.86v-.654zM54.577 6.355c-.592 0-1.029-.253-1.313-.749h-.017l-.053.653h-.79c.025-.34.034-.723.034-1.14V.09h.93v2.56h.016c.275-.47.72-.705 1.33-.705 1.005 0 1.71.87 1.71 2.14 0 1.313-.783 2.27-1.847 2.27zm-.188-3.673c-.534 0-1.022.47-1.022 1.122v.74c0 .583.439 1.062 1.005 1.062.694 0 1.108-.574 1.108-1.488 0-.852-.43-1.436-1.091-1.436zM57.795.09h.927v6.169h-.927zM63.767 4.37h-2.783c.019.801.54 1.253 1.313 1.253.413 0 .791-.07 1.125-.2l.145.653c-.395.174-.858.26-1.399.26-1.306 0-2.078-.835-2.078-2.13 0-1.297.79-2.272 1.975-2.272 1.063 0 1.734.8 1.734 2.01.003.165-.005.313-.032.426zm-.849-.67c0-.652-.327-1.113-.92-1.113-.532 0-.952.47-1.014 1.113h1.934zM69.386 6.355c-1.219 0-2.009-.923-2.009-2.176 0-1.305.807-2.236 2.08-2.236 1.2 0 2.008.879 2.008 2.167 0 1.322-.833 2.245-2.079 2.245zm.036-3.725c-.67 0-1.099.635-1.099 1.522 0 .871.438 1.506 1.09 1.506.652 0 1.09-.679 1.09-1.524 0-.86-.43-1.504-1.081-1.504zM76.45 6.259h-.926V3.83c0-.747-.284-1.122-.842-1.122-.55 0-.928.479-.928 1.036v2.515h-.926v-3.02c0-.374-.01-.775-.035-1.21h.816l.043.653h.026c.247-.452.755-.74 1.322-.74.874 0 1.45.679 1.45 1.784v2.533M82.515 2.735h-1.02v2.053c0 .523.18.784.54.784.162 0 .301-.018.412-.044l.025.714c-.18.07-.422.105-.72.105-.731 0-1.167-.41-1.167-1.48V2.735h-.607V2.03h.607v-.775l.91-.279V2.03h1.02v.706M87.424 6.259h-.928v-2.41c0-.757-.284-1.14-.84-1.14-.481 0-.927.33-.927 1v2.55H83.8V.089h.928v2.54h.018c.29-.46.713-.687 1.253-.687.884 0 1.424.696 1.424 1.802v2.515M92.161 4.37H89.38c.018.801.54 1.253 1.313 1.253.414 0 .79-.07 1.123-.2l.146.653c-.394.174-.858.26-1.4.26-1.305 0-2.077-.835-2.077-2.13 0-1.297.79-2.272 1.974-2.272 1.064 0 1.734.8 1.734 2.01a1.84 1.84 0 0 1-.03.426zm-.85-.67c0-.652-.325-1.113-.918-1.113-.532 0-.953.47-1.014 1.113h1.932z"/></g></g></svg>