<svg width="496" height="250" viewBox="0 0 496 250" xmlns="http://www.w3.org/2000/svg"><title>Group</title><g fill-rule="nonzero" fill="none"><g opacity=".3"><path d="M236.825 54.345c-1.848 17.576-17.594 30.327-35.17 28.48-17.576-1.848-30.327-17.594-28.48-35.17 1.848-17.576 17.594-30.327 35.17-28.48 17.576 1.848 30.327 17.594 28.48 35.17" fill="#FFCC4D"/><path d="M204.32 57.467c-5.24-.55-8.654-1.526-12.867-2.81-.964-.29-2.893-.305-3.197 2.58-.606 5.766 5.285 13.674 14.549 14.648 9.264.974 16.67-5.537 17.276-11.304.303-2.884-1.588-3.273-2.59-3.188-4.388.38-7.929.625-13.17.074" fill="#664500"/><path d="M205.859 24.455c-1.082-4.435-5.596-7.178-10.09-6.127a8.297 8.297 0 0 0-5.792 4.91 8.457 8.457 0 0 0-7.423-1.812c-4.49 1.054-7.26 5.504-6.179 9.94.154.628.384 1.219.664 1.773 2.816 6.664 12.398 12.148 18.475 12.842 5.1-3.317 11.124-12.458 10.568-19.65a8.237 8.237 0 0 0-.223-1.876zm4.812.506c1.98-4.114 6.968-5.858 11.143-3.896a8.303 8.303 0 0 1 4.647 6.007 8.457 8.457 0 0 1 7.638-.228c4.172 1.964 5.956 6.893 3.979 11.007a8.3 8.3 0 0 1-1.02 1.596c-4.14 5.933-14.653 9.305-20.743 8.72-4.3-4.304-8.289-14.498-6.25-21.417.13-.605.329-1.206.606-1.789z" fill="#DD2E44"/></g><g opacity=".3" transform="translate(96 211)"><path d="M.005 32.527a.317.317 0 0 0-.005.045c.001.12.022.235.035.352.01.08.01.165.022.247l.05.22C.775 36.558 4.805 39 9.696 39c4.886 0 8.92-2.44 9.584-5.61.02-.072.038-.143.05-.218.013-.081.017-.165.024-.249.013-.116.034-.23.035-.351 0-.017-.005-.031-.007-.045l.007-.059h-.009c-.055-1.81-1.472-3.264-3.222-3.264-1.754 0-3.17 1.454-3.224 3.264h-.02c.001-.033.01-.066.01-.101 0-1.86-1.447-3.367-3.232-3.367-1.783 0-3.23 1.506-3.232 3.367.001.035.01.068.013.101h-.018c-.055-1.81-1.47-3.264-3.223-3.264-1.752 0-3.168 1.454-3.221 3.264H0c0 .02.005.039.005.059zm19.613 0a.225.225 0 0 0-.007.045c.001.12.022.235.034.352.01.08.012.165.023.247.015.076.033.15.05.22.669 3.168 4.7 5.609 9.588 5.609 4.886 0 8.92-2.44 9.586-5.61.02-.072.038-.143.05-.218.012-.081.017-.165.023-.249.013-.116.033-.23.035-.351 0-.017-.004-.031-.007-.045l.007-.059h-.01c-.055-1.81-1.471-3.264-3.222-3.264-1.752 0-3.17 1.454-3.224 3.264h-.02c.001-.033.01-.066.01-.101 0-1.86-1.447-3.367-3.23-3.367-1.784 0-3.23 1.506-3.231 3.367.002.035.01.068.013.101h-.02c-.056-1.81-1.472-3.264-3.224-3.264-1.752 0-3.168 1.454-3.221 3.264h-.01c0 .02.007.039.007.059z" fill="#E1E8ED"/><circle fill="#FFDC5D" cx="19" cy="22" r="13"/><path d="M20 6C11.729 6 5 12.591 5 20.693c0 2.068.44 4.082 1.309 5.985.101.22.333.345.584.317a.55.55 0 0 0 .474-.463c.436-2.998 2.867-5.122 5.013-6.996 1.992-1.74 3.887-3.395 3.827-5.486 7.24 1.274 15.562 6.548 16.426 12.482a.55.55 0 0 0 .55.468.555.555 0 0 0 .507-.322A14.317 14.317 0 0 0 35 20.693C35 12.59 28.271 6 20 6z" fill="#FFAC33"/><path d="M15 29.8h9S22.875 32 19.5 32 15 29.8 15 29.8zm2.25-5.5c0 .608-.504 1.1-1.125 1.1A1.112 1.112 0 0 1 15 24.3v-2.2c0-.608.504-1.1 1.125-1.1s1.125.492 1.125 1.1v2.2zm6.75 0c0 .608-.503 1.1-1.125 1.1a1.112 1.112 0 0 1-1.125-1.1v-2.2c0-.608.503-1.1 1.125-1.1S24 21.492 24 22.1v2.2z" fill="#662113"/><path d="M19 0C11.82 0 6 2.91 6 6.5S11.82 13 19 13s13-2.91 13-6.5S26.18 0 19 0zm0 9.75c-5.385 0-9.75-1.698-9.75-3.792S13.615 2.167 19 2.167s9.75 1.697 9.75 3.791S24.385 9.75 19 9.75z" fill="#8CCAF7"/></g><g opacity=".78"><path d="M463.698 85.347c.695-1.01.307-2.47.48-4.082.178-2.63 1.308-5.178 3.5-7.216l7.466-6.942s1.471-1.369 2.841.103c1.368 1.471-.104 2.84-.104 2.84l-3.154 2.934-2.734 2.542s.685.736 3.711-2.078l10.22-9.506s1.473-1.368 2.842.104c1.368 1.471-.103 2.84-.103 2.84l-9.664 8.989c.021-.02.731.692.744.68l10.34-9.617s1.472-1.369 2.841.103c1.369 1.472-.103 2.84-.103 2.84L482.48 79.5c-.012.012.654.764.634.783l8.92-8.298s1.472-1.369 2.841.103c1.369 1.472-.103 2.841-.103 2.841l-9.484 8.82c-.087.081.5.908.391 1.009l6.834-6.356s1.472-1.369 2.841.104c1.369 1.472-.103 2.841-.103 2.841L484.104 91.71c-1.861 1.731-3.772 2.607-6.076 2.928-.469.065-1.069.065-1.315.096-.777.098-1.459.374-2.372.934-1.175.72-2.938 1.02-3.951-.063l-3.454-3.695-3.189-3.412c-1.012-1.082-.831-2.016-.049-3.151z" fill="#EF9645"/><path d="M494.044 96.026a.999.999 0 0 0 .707-1.707L491.2 90.77a.999.999 0 1 0-1.414 1.414l3.551 3.55a.996.996 0 0 0 .707.292zm-6.746.922a.999.999 0 0 0 .944-1.33l-.971-2.773a1 1 0 0 0-1.887.66l.971 2.773a1 1 0 0 0 .943.67zm7.667-7.667a1.001 1.001 0 0 0 .333-1.943l-2.495-.881a1 1 0 1 0-.666 1.886l2.495.881c.111.039.223.057.333.057zm-29.46-21.767a1 1 0 0 0 .707-1.708l-3.552-3.55a1 1 0 0 0-1.414 1.415l3.552 3.55a.993.993 0 0 0 .707.293zm4.164-1.697a1 1 0 0 0 .944-1.331l-.97-2.773a1 1 0 0 0-1.888.66l.97 2.773a1 1 0 0 0 .944.671zm-6.143 5.774a1.001 1.001 0 0 0 .333-1.943l-2.494-.881a1 1 0 1 0-.666 1.886l2.494.881c.111.039.223.057.333.057z" fill="#FA743E"/><path d="M460.61 84.822c.661-1.032.224-2.479.342-4.096.09-2.634 1.133-5.219 3.255-7.33l7.228-7.189s1.424-1.417 2.843.008c1.417 1.424-.008 2.842-.008 2.842l-3.054 3.039-2.646 2.632s.71.712 3.639-2.202c2.931-2.915 9.894-9.845 9.894-9.845s1.425-1.417 2.843.008c1.418 1.424-.007 2.841-.007 2.841l-9.356 9.31c.02-.02.754.667.767.654l10.01-9.96s1.425-1.418 2.843.007c1.417 1.425-.007 2.842-.007 2.842l-10.011 9.962c-.012.012.68.741.66.761l8.635-8.593s1.425-1.417 2.843.008-.007 2.843-.007 2.843l-9.181 9.135c-.084.083.53.891.425.996l6.616-6.583s1.425-1.417 2.843.008-.007 2.843-.007 2.843l-10.79 10.732c-1.802 1.793-3.682 2.732-5.974 3.131-.467.081-1.067.101-1.311.14-.773.124-1.445.423-2.34 1.014-1.15.759-2.902 1.118-3.951.07l-3.577-3.576-3.302-3.302c-1.049-1.05-.9-1.99-.157-3.15z" fill="#FFDB5E"/></g><g opacity=".7"><path d="M134.325 112.713c-1.903 1.995-3.148 5.862-2.772 8.588l1.72 12.311c.38 2.728-1.352 3.99-3.85 2.808l-11.281-5.344c-2.497-1.185-6.571-1.168-9.063.034l-11.233 5.433c-2.49 1.202-4.229-.05-3.87-2.776L95.6 121.44c.359-2.727-.916-6.582-2.834-8.565l-8.666-8.96c-1.92-1.983-1.263-4.018 1.456-4.521l12.283-2.27c2.719-.503 6.008-2.902 7.313-5.332l5.883-10.966c1.302-2.429 3.45-2.435 4.769-.017l5.968 10.92c1.322 2.418 4.627 4.792 7.354 5.272l12.298 2.18c2.723.483 3.395 2.512 1.492 4.51l-8.592 9.022z" fill="#FFAC33"/><path d="M97.75 82.727c1.961 2.728 4.689 9.49 3.291 10.513-1.395 1.025-6.913-3.686-8.873-6.413-1.96-2.727-1.792-5.15-.252-6.28 1.541-1.134 3.872-.545 5.835 2.18zm37.083 4.1c-1.959 2.727-7.477 7.44-8.876 6.411-1.397-1.022 1.332-7.783 3.295-10.509 1.96-2.729 4.29-3.317 5.832-2.183 1.54 1.131 1.706 3.554-.251 6.28zm-23.969 55.944c-.002-3.37 1.721-10.462 3.452-10.462 1.719 0 3.446 7.093 3.444 10.46 0 3.372-1.541 5.235-3.45 5.231-1.905.004-3.446-1.857-3.446-5.229zm31.009-17.876c-3.172-1.04-9.311-4.889-8.776-6.552.53-1.656 7.737-1.122 10.905-.08 3.172 1.043 4.448 3.098 3.858 4.934-.59 1.833-2.815 2.74-5.987 1.698zm-58.88-6.63c3.172-1.042 10.376-1.576 10.913.085.529 1.655-5.612 5.509-8.78 6.547-3.17 1.042-5.401.135-5.986-1.698-.59-1.834.679-3.89 3.853-4.933z" fill="#FFD983"/></g><g opacity=".2" transform="translate(0 79)"><path d="M26 13c0 7.18-5.82 13-13 13S0 20.18 0 13 5.82 0 13 0s13 5.82 13 13" fill="#FFCC4D"/><ellipse fill="#664500" cx="13" cy="18.5" rx="2" ry="2.5"/><path d="M22.286 8a.732.732 0 0 1-.572-.267c-1.886-2.347-4.33-2.398-4.433-2.4-.393-.004-.71-.304-.708-.67.003-.367.32-.663.713-.663.13 0 3.24.033 5.57 2.933a.637.637 0 0 1-.142.934.744.744 0 0 1-.428.133zM3.714 8a.746.746 0 0 1-.428-.133.638.638 0 0 1-.143-.934C5.473 4.033 8.583 4 8.714 4c.394 0 .714.299.714.667 0 .367-.317.665-.711.666-.11.002-2.549.058-4.431 2.4A.732.732 0 0 1 3.714 8z" fill="#664500"/><ellipse fill="#664500" cx="9" cy="10.5" rx="2" ry="2.5"/><ellipse fill="#664500" cx="18" cy="10.5" rx="2" ry="2.5"/></g><g opacity=".25"><path d="M49.292 189.025a4.012 4.012 0 0 1-2.656 4.994l-21.039 6.432a4.012 4.012 0 0 1-4.995-2.655l-4.97-16.257a4.012 4.012 0 0 1 2.656-4.995l21.039-6.432a4.012 4.012 0 0 1 4.994 2.655l4.97 16.258z" fill="#FDD888"/><path d="M46.313 169.021a4.012 4.012 0 0 1-2.656 4.995l-26.776 8.186a4.012 4.012 0 0 1-4.995-2.655 4.012 4.012 0 0 1 2.656-4.995l26.776-8.186a4.012 4.012 0 0 1 4.995 2.655z" fill="#FDD888"/><path fill="#FCAB40" d="M15.924 182.495l28.69-8.771.584 1.912-28.689 8.771z"/><path d="M27.717 166.341l-1.913.585a3 3 0 0 0-1.991 3.746l8.478 27.733 7.65-2.34-8.478-27.732a3 3 0 0 0-3.746-1.992z" fill="#DA2F47"/><path d="M26.017 171.044c1.052-.322 1.057-.863.01-1.203l-7.804-2.535a1.795 1.795 0 0 0-2.344 1.333l-.896 3.963c-.243 1.073.42 1.687 1.471 1.365l9.563-2.923zm3.826-1.17c-1.052.322-1.359-.124-.68-.991l5.052-6.466a1.796 1.796 0 0 1 2.689-.206l2.959 2.783c.8.755.595 1.635-.457 1.956l-9.563 2.924z" fill="#DA2F47"/></g><g opacity=".7" transform="translate(300)"><path d="M66.935 75H24.097c-6.65 0-12.357 4.153-14.798 10.068-.98-1.108-2.38-1.818-3.944-1.818C2.41 83.25 0 85.725 0 88.75V97h83v-5.5C83 82.39 75.806 75 66.935 75z" fill="#4289C1"/><path d="M35.22 73h21.56S59.475 97 46 97 35.22 73 35.22 73z" fill="#2A6797"/><ellipse fill="#292F33" cx="45.5" cy="51.5" rx="40.5" ry="9.5"/><path d="M67.969 47.293C65.789 37.6 56.556 24 45.497 24c-11.059 0-20.291 13.599-22.471 23.293-2.253.13-4.026 1.4-4.026 5.087 0 3.9 1.978 7.06 4.417 7.06.04 0 .075-.015.116-.018C26.4 71.206 35.147 81 45.5 81c10.353 0 19.1-9.794 21.967-21.578.04.003.076.019.116.019 2.44 0 4.417-3.162 4.417-7.06-.005-3.687-1.776-4.956-4.031-5.088z" fill="#FFDC5D"/><path d="M34.7 56c-1.485 0-2.7-1.2-2.7-2.667v-2.666C32 49.2 33.215 48 34.7 48s2.7 1.2 2.7 2.667v2.666C37.4 54.8 36.185 56 34.7 56zm21.6 0c-1.485 0-2.7-1.2-2.7-2.667v-2.666C53.6 49.2 54.815 48 56.3 48s2.7 1.2 2.7 2.667v2.666C59 54.8 57.785 56 56.3 56z" fill="#662113"/><path d="M48.056 59.141H43.94a2.068 2.068 0 0 1-2.057-2.07c0-1.14.925-2.071 2.057-2.071h4.115c1.133 0 2.057.93 2.057 2.07 0 1.14-.924 2.071-2.057 2.071zM51.943 68H40.057A2.07 2.07 0 0 1 38 65.93v-.914a2.07 2.07 0 0 1 2.057-2.07h11.886c1.133 0 2.057.93 2.057 2.07v.913C54 67.067 53.073 68 51.943 68z" fill="#C1694F"/><path d="M68.461 48.38c.515-.25.928-.609 1.198-1.084 1.104-1.949-.584-5.053-3.773-6.928-3.19-1.875-6.67-1.815-7.773.133-1.104 1.949.584 5.053 3.773 6.928 1.384.813 2.81 1.242 4.085 1.329-.779 1.424-1.307 4.003-1.307 6.982 0 2.889.494 5.41 1.235 6.86-1.09-.044-2.541 1.075-3.443 2.076-1.89-2.009-4.909-4.21-8.32-4.898-5.47-1.103-7.735 1.05-8.233 2.536-.486-1.487-2.744-3.664-8.24-2.555-3.357.677-6.33 2.821-8.226 4.802-.904-.97-2.293-2.002-3.341-1.962.744-1.448 1.237-3.973 1.237-6.86 0-2.991-.533-5.581-1.32-6.997 1.51.174 3.397-.245 5.208-1.31 3.189-1.876 4.877-4.98 3.773-6.928-1.104-1.948-4.584-2.008-7.773-.133-3.19 1.875-4.877 4.979-3.773 6.927.133.237.307.443.504.623C22.829 48.877 22 51.997 22 55.74c0 4.503 1.195 8.153 2.667 8.153.053 0 .104-.038.157-.049-.099.37-.157.82-.157 1.389 0 4.954 1.778 4.954 1.778 4.954-1.778 4.955 1.779 9.947 1.779 9.947 0 7.433 5.333 7.433 5.333 7.433-.003 7.433 7.109 4.957 7.109 4.957C42.444 95 45.999 95 45.999 95s3.554 0 5.333-2.476c0 0 7.111 2.476 7.111-4.954 0 0 5.333 0 5.333-7.433 0 0 3.555-4.993 1.779-9.947 0 0 1.778 0 1.778-4.955 0-.57-.058-1.021-.157-1.391.053.01.104.049.157.049 1.472 0 2.667-3.65 2.667-8.153-.003-3.262-.632-6.055-1.539-7.36zm-15.35 21.807c-5.03-3.5-7.112-2.476-7.112-2.476s-2.083-1.024-7.112 2.476c-2.701 1.88-5.397-.522-7.32-2.872 1.995-.748 4.49-1.69 7.133-2.224 4.883.082 6.757-.611 7.203-1.627.445.989 2.333 1.625 7.2 1.646 2.7.544 5.252 1.522 7.268 2.275-1.917 2.327-4.589 4.667-7.26 2.802z" fill="#E6E7E8"/><path d="M66.466 40.685C63.15 33.472 47.64 0 45.5 0c-2.141 0-17.65 33.472-20.965 40.685C11.52 42.95 5 47.229 5 51c16.2-5.368 29.7-6.558 40.5-6.558S69.8 45.632 86 51c0-3.771-6.52-8.05-19.534-10.315z" fill="#4289C1"/><path fill="#D99E82" d="M11.25 97h-5.5V32.345L3 22h11l-2.75 10.345z"/><circle fill="#55ACEE" cx="8" cy="16" r="8"/><circle fill="#B0F0FF" cx="7" cy="15" r="4"/><path d="M16 81.667C16 86.82 12.419 91 8 91c-4.419 0-8-4.179-8-9.333C0 76.512 3.581 75 8 75c4.419 0 8 1.512 8 6.667z" fill="#FFDC5D"/></g></g></svg>