<svg width="109" height="29" viewBox="0 0 109 29" xmlns="http://www.w3.org/2000/svg" xmlns:xlink="http://www.w3.org/1999/xlink"><defs><linearGradient x1="58.917%" y1="9.59%" x2="90.81%" y2="60.851%" id="a"><stop stop-color="#FF177B" offset="0%"/><stop stop-color="#FFEC73" offset="100%"/></linearGradient><linearGradient x1="37.103%" y1="-44.035%" x2="0%" y2="101.06%" id="c"><stop stop-color="#064AA2" offset="0%"/><stop stop-color="#63FFD4" offset="100%"/></linearGradient><path d="M11.072 10.116L.398 0C.15.058 0 .244 0 .558v19.355c0 .266.107.424.239.478l10.833-10.275z" id="b"/><path d="M.44 11.178L6.61 7.79c1.52-.841 2.725-1.51 2.725-1.51l4.486-2.416L10.835.961.002 11.237c.12.04.333.018.5-.064" id="e"/><linearGradient x1="78.645%" y1="50%" x2="2.495%" y2="100%" id="f"><stop stop-color="#FF4521" offset="0%"/><stop stop-color="#8A33DB" offset="100%"/></linearGradient><linearGradient x1="0%" y1="-24.186%" x2="64.224%" y2="100%" id="i"><stop stop-color="#00A3B5" offset="0%"/><stop stop-color="#D6FFA1" offset="100%"/></linearGradient><path d="M1.568 1.091C1.362.981 1.158.95.993.994l10.682 10.13 2.956-2.796-4.455-2.467L3.442 2.13 1.568 1.09z" id="h"/></defs><g fill="none" fill-rule="evenodd"><path d="M10.573 5.86S2.456 1.364 1.979 1.1c-.478-.265-.953-.105-.953.447v19.397c0 .413.34.593.755.363l8.792-4.871 1.707-.946 2.747-1.521 4.283-2.373c.502-.278.454-.66.03-.88-.424-.219-4.313-2.388-4.313-2.388l-4.454-2.467z" fill="url(#a)" transform="translate(-.22 7.258)"/><g transform="translate(.78 8.258)"><mask id="d" fill="#fff"><use xlink:href="#b"/></mask><use fill="url(#c)" xlink:href="#b"/><path d="M14.019 7.328l-4.46-2.47C9.542 4.896 1.428.39.955.16.475-.14 0 .02 0 .558V19.993c0 .427.34.607.717.398.451-.25 8.826-4.902 8.841-4.938l4.46-2.47c-.022.035 3.756-2.064 4.222-2.31.539-.311.49-.693.08-.876-.437-.257-4.324-2.43-4.301-2.469" mask="url(#d)"/></g><g transform="translate(1.017 17.414)"><mask id="g" fill="#fff"><use xlink:href="#e"/></mask><path d="M9.32-4.297c-.015.036-8.129-4.47-8.602-4.7-.48-.3-.956-.139-.956.399V10.837c0 .427.34.606.717.398.451-.251 8.826-4.902 8.842-4.938l4.46-2.47c-.023.035 3.755-2.064 4.222-2.31.538-.311.49-.693.08-.876-.438-.257-4.325-2.43-4.302-2.469l-4.46-2.47z" fill="url(#f)" mask="url(#g)"/></g><g transform="translate(.176 7.258)"><mask id="j" fill="#fff"><use xlink:href="#h"/></mask><use fill="url(#i)" xlink:href="#h"/><path d="M14.622 8.328l-4.46-2.47c-.016.037-8.13-4.469-8.603-4.699-.48-.3-.956-.139-.956.399V20.993c0 .427.34.607.717.398.451-.25 8.826-4.902 8.842-4.938l4.46-2.47c-.023.035 3.755-2.064 4.222-2.31.538-.311.49-.693.08-.876-.438-.257-4.325-2.43-4.302-2.469" mask="url(#j)"/></g><g fill="#FFF"><path d="M76.578 21.788l-.882.838c-.204.112-.407.243-.609.336-.613.28-1.236.35-1.79.35-.588 0-1.512-.038-2.454-.724-1.309-.927-1.881-2.521-1.881-3.91 0-2.876 2.327-4.287 4.226-4.287.663 0 1.345.167 1.9.52.92.612 1.159 1.409 1.291 1.836l-4.335 1.761-1.42.111c.46 2.359 2.045 3.73 3.798 3.73.875 0 1.525-.287 2.121-.584 0 0 .12-.062.035.023zm-2.649-4.73c.348-.13.529-.242.529-.502 0-.746-.824-1.607-1.807-1.607-.729 0-2.096.58-2.096 2.598 0 .315.037.65.055.986l3.319-1.475z"/><path d="M67.53 21.688c0 .718.128.83.732.887.315.037.628.054.939.09l-.68.408h-3.24c.426-.555.499-.61.499-.98v-.413l-.008-11.002h-1.43l1.377-.668h2.629c-.57.333-.74.535-.813 1.182l-.005 10.496"/><path d="M62.504 15.299c.422.35 1.301 1.09 1.301 2.496 0 1.37-.766 2.016-1.539 2.628-.237.24-.514.501-.514.905 0 .41.277.631.477.797l.663.516c.806.686 1.54 1.315 1.54 2.592 0 1.74-1.67 3.496-4.827 3.496-2.66 0-3.945-1.277-3.945-2.646 0-.667.329-1.61 1.414-2.257 1.138-.7 2.68-.795 3.505-.85-.258-.335-.552-.686-.552-1.26 0-.314.093-.5.184-.72-.201.018-.403.038-.587.038-1.947 0-3.047-1.464-3.047-2.906 0-.851.385-1.796 1.176-2.48 1.046-.868 2.294-1.018 3.285-1.018h3.782l-1.176.669h-1.14zm-1.29 8.193c-.153-.02-.244-.02-.427-.02-.167 0-1.167.036-1.94.3-.41.153-1.594.604-1.594 1.942 0 1.335 1.278 2.298 3.255 2.298 1.776 0 2.719-.867 2.719-2.034 0-.96-.61-1.468-2.014-2.486zm.518-3.564c.423-.426.46-1.014.46-1.348 0-1.326-.784-3.392-2.303-3.392-.474 0-.987.24-1.278.61-.31.385-.402.883-.402 1.363 0 1.235.713 3.284 2.283 3.284.458 0 .951-.225 1.24-.517zM51.067 23.312c-2.923 0-4.488-2.306-4.488-4.394 0-2.44 1.967-4.527 4.764-4.527 2.703 0 4.397 2.144 4.397 4.396 0 2.199-1.674 4.525-4.673 4.525zm2.286-1.508c.446-.598.555-1.344.555-2.072 0-1.645-.775-4.783-3.063-4.783-.609 0-1.222.24-1.664.634-.72.653-.85 1.475-.85 2.281 0 1.846.902 4.89 3.139 4.89.722 0 1.458-.353 1.883-.95zM41.27 23.312c-2.926 0-4.488-2.306-4.488-4.394 0-2.44 1.968-4.527 4.765-4.527 2.703 0 4.395 2.144 4.395 4.396 0 2.199-1.672 4.525-4.673 4.525zm2.287-1.508c.443-.598.553-1.344.553-2.072 0-1.645-.777-4.783-3.064-4.783-.611 0-1.218.24-1.661.634-.722.653-.85 1.475-.85 2.281 0 1.846.905 4.89 3.139 4.89.72 0 1.456-.353 1.883-.95zM35.57 22.761l-2.477.57c-1.003.16-1.904.3-2.858.3-4.776 0-6.596-3.538-6.596-6.307 0-3.382 2.579-6.517 6.995-6.517.934 0 1.833.138 2.652.363 1.297.367 1.904.819 2.283 1.084l-1.438 1.375-.606.136.432-.693c-.586-.576-1.662-1.638-3.705-1.638-2.732 0-4.793 2.09-4.793 5.14 0 3.278 2.353 6.36 6.127 6.36 1.109 0 1.68-.224 2.198-.434v-2.809l-2.614.142 1.385-.75h3.67l-.45.435c-.12.104-.137.14-.17.278-.019.159-.036.663-.036.84v2.125M81.922 21.874v4.704h-.933v-11.97h.933v1.363a3.703 3.703 0 0 1 3.005-1.58c2.312 0 3.868 1.758 3.868 4.54 0 2.763-1.556 4.557-3.868 4.557-1.217 0-2.306-.629-3.005-1.614zm5.918-2.872c0-2.119-1.095-3.735-3.036-3.735-1.205 0-2.358.956-2.859 1.79v3.872c.501.835 1.654 1.826 2.86 1.826 1.94 0 3.035-1.63 3.035-3.753zM90.07 11.285h.956v12.027h-.956zM101.417 25.75c.2.089.54.144.756.144.57 0 .967-.234 1.323-1.06l.68-1.544-3.672-8.74h1.04l3.15 7.574 3.12-7.574h1.054l-4.479 10.574c-.464 1.09-1.196 1.613-2.2 1.613-.301 0-.699-.053-.932-.125l.16-.862M98.787 23.3c-.063-.302-.11-.568-.145-.79a5.316 5.316 0 0 1-.045-.68c-.32.473-.776.867-1.358 1.176-.582.312-1.135.466-1.893.466-.914 0-1.623-.226-2.129-.682-.504-.457-.758-1.075-.758-1.857 0-.78.368-1.415 1.1-1.9.733-.487 1.68-.73 2.852-.73h2.186v-1.082c0-.623-.212-1.114-.635-1.47-.425-.355-1.022-.535-1.795-.535-.707 0-1.28.164-1.717.484-.432.327-.65.733-.65 1.22h-.96l-.02-.046c-.034-.658.266-1.236.905-1.734.636-.498 1.469-.749 2.494-.749 1.022 0 1.85.247 2.473.739.623.487.935 1.19.935 2.111v4.299a5.711 5.711 0 0 0 .24 1.76h-1.08zm-3.329-.625c.796 0 1.368-.18 1.952-.534.58-.352.976-.812 1.183-1.369v-1.681h-2.195c-.839 0-1.533.187-2.079.564-.547.376-.824.831-.824 1.36 0 .5.176.9.525 1.202.35.306.828.458 1.438.458z"/></g><g fill="#FFF"><path d="M23.324 3.185c0-1.716 1.37-2.82 3.074-2.82 1.142 0 1.889.507 2.354 1.128l-.834.45a1.935 1.935 0 0 0-1.52-.727c-1.159 0-2.02.817-2.02 1.969 0 1.135.861 1.969 2.02 1.969.598 0 1.124-.253 1.388-.49v-.842h-1.757V2.98h2.776v2.035c-.571.597-1.397.997-2.407.997-1.704 0-3.074-1.12-3.074-2.827M30.133 5.929V.449h4.069v.846h-3.027v1.413h2.965v.846h-2.965v1.528h3.027v.847h-4.069M36.969 5.929V1.295h-1.77V.448h4.566v.847h-1.77V5.93h-1.026M43.419.448h.996v5.48h-.996zM47.266 5.929V1.295h-1.771V.448h4.567v.847h-1.77V5.93h-1.026M53.466 3.189c0-1.629 1.253-2.824 3.031-2.824 1.768 0 3.03 1.195 3.03 2.824 0 1.628-1.262 2.823-3.03 2.823-1.778 0-3.03-1.195-3.03-2.823zm4.982-.042c0-1.117-.768-1.951-1.95-1.951-1.193 0-1.952.834-1.952 1.951 0 1.11.76 1.951 1.951 1.951 1.183 0 1.951-.842 1.951-1.95zM64.765 5.929l-3.05-3.92v3.92H60.69V.449h1.052l2.988 3.796V.448h1.025v5.48h-.99"/></g></g></svg>