<svg width="40" height="40" viewBox="0 0 40 40" xmlns="http://www.w3.org/2000/svg"><g fill="none" fill-rule="evenodd"><circle fill="#E9F1FF" class="fill-bg-light" cx="20" cy="20" r="20"/><g fill-rule="nonzero"><path d="M19.607 19.275h.025a3.14 3.14 0 0 0 3.137-3.138A3.14 3.14 0 0 0 19.632 13 6.64 6.64 0 0 0 13 19.632a6.639 6.639 0 0 0 3.643 5.919 3.832 3.832 0 0 1-.862-2.425 3.855 3.855 0 0 1 3.826-3.85z" fill="#4D61FC" class="fill-main"/><path d="M23.357 14.45c.539.662.862 1.506.862 2.424a3.855 3.855 0 0 1-3.85 3.851 3.14 3.14 0 0 0-3.138 3.138A3.14 3.14 0 0 0 20.368 27h.003A6.64 6.64 0 0 0 27 20.368a6.639 6.639 0 0 0-3.643-5.918z" fill="#00396B" class="fill-secondary"/></g></g></svg>