<svg width="40" height="40" viewBox="0 0 40 40" xmlns="http://www.w3.org/2000/svg"><g fill="none" fill-rule="evenodd"><circle fill="#E9F1FF" class="fill-bg-light" cx="20" cy="20" r="20"/><g fill-rule="nonzero"><path d="M23.723 18.901a.287.287 0 0 0-.26-.166h-3.398l3.354-5.295a.287.287 0 0 0-.242-.44h-4.589a.287.287 0 0 0-.256.159l-4.302 8.603a.286.286 0 0 0 .257.414h2.949l-3.214 7.632a.287.287 0 0 0 .484.296l9.177-10.897a.287.287 0 0 0 .04-.306z" fill="#4D61FC" class="fill-main"/><path d="M26.973 18.901a.287.287 0 0 0-.26-.166h-3.398l3.354-5.295a.287.287 0 0 0-.242-.44h-4.589a.287.287 0 0 0-.256.159l-4.302 8.603a.286.286 0 0 0 .257.414h2.949l-3.214 7.632a.287.287 0 0 0 .484.296l9.177-10.897a.287.287 0 0 0 .04-.306z" stroke="#E9F1FF" class="stroke-light fill-secondary" fill="#00396B"/></g></g></svg>