<svg xmlns="http://www.w3.org/2000/svg" viewBox="-149 299 1076.6 512"><path fill="#D81921" d="M294.14 299.29c-44.645 3.117-82.431 40.654-82.431 93.53v251.659c0 9.103-6.734 16.96-16.586 16.96h-78.566c-170.1.25-155.01-217.24-10.226-217.49h87.046v-63.226h-90.039c-57.74 0-100.514 21.575-129.321 53.624-28.932 32.175-43.398 75.323-43.398 118.472-.125 43.149 14.217 86.048 43.772 118.222 29.556 32.05 74.2 53.624 135.432 53.624H258.1c9.727 0 17.833-8.48 17.833-18.207V399.554c-.125-15.838 8.854-28.06 20.452-31.676 11.598-3.616 25.19.998 33.172 12.471l.374.374c42.151 68.963 209.508 337.458 209.757 337.956 4.615 6.485 10.102 7.732 14.092 6.36 3.99-1.371 7.982-5.611 7.982-16.336V399.554c-.125-15.838 8.854-28.06 20.451-31.676 11.598-3.616 24.942.998 32.923 12.471v.374h.624c42.15 68.963 209.508 337.458 209.757 337.956 4.49 6.485 9.852 7.732 14.092 6.36 4.24-1.371 8.355-5.362 8.355-15.962V300.911h-63.6V539.1s-37.911-64.723-102.759-176.336c-63.6-109.243-183.694-63.974-183.694 30.055V539.1s-37.287-64.723-102.26-176.336c-27.934-47.762-66.718-66.094-101.51-63.475zm-179.703 1.62c-353.67 0-350.302 504.067 4.739 504.316H258.1c59.734 0 97.77-35.292 97.77-100.638V576.763s77.942 128.947 108.62 179.453c52.003 85.923 177.583 68.963 177.209-38.285V576.763S719.39 705.71 749.945 756.216c52.002 85.923 177.957 68.963 177.582-38.285V300.786h-63.6v408.166c.124 15.713-8.106 27.311-19.455 30.928-11.348 3.74-24.317-.998-32.299-12.097h-.25v-.623s-167.48-267.747-210.13-337.583c-.125-.124-.25.125-.375 0-.124 0 .125-.374 0-.374-4.364-5.86-10.1-7.108-14.715-5.736-4.739 1.496-9.353 5.612-9.228 15.962v309.15c.124 15.588-7.982 27.809-19.205 31.675-11.224 3.741-24.069-1.247-31.925-12.47v-.375h-.374S358.364 459.164 315.839 389.453c-4.49-6.36-10.226-7.857-14.965-6.36s-9.353 5.612-9.228 15.962v307.278c0 18.582-15.339 34.17-33.92 34.17H109.574c-65.098 0-114.357-23.445-146.905-58.737-32.549-35.292-48.636-82.182-48.636-129.072.125-46.765 16.087-94.029 47.887-129.32s79.439-58.738 141.169-58.738h90.038v-63.85l-78.69.125z"/></svg>