<svg xmlns="http://www.w3.org/2000/svg" viewBox="0 0 912.30664 130.90668" height="130.907" width="912.307"><g fill="#100f0d"><path d="M149.51 115.276V15.544c0-5.18 1.18-9.068 3.543-11.657 2.36-2.59 5.418-3.887 9.16-3.887 3.862 0 6.986 1.284 9.379 3.845 2.39 2.562 3.588 6.459 3.588 11.699v99.732c0 5.237-1.199 9.152-3.588 11.742-2.393 2.593-5.517 3.889-9.379 3.889-3.688 0-6.726-1.311-9.118-3.931-2.391-2.62-3.586-6.522-3.586-11.7M846.89 26.561c-21.467 0-38.933 17.468-38.933 38.935 0 21.465 17.466 38.93 38.934 38.93 21.465 0 38.932-17.465 38.932-38.93 0-21.467-17.467-38.935-38.932-38.935m0 104.346c-36.068 0-65.414-29.345-65.414-65.411 0-36.071 29.346-65.414 65.414-65.414 36.07 0 65.41 29.343 65.41 65.414 0 36.066-29.34 65.41-65.41 65.41M553.244 26.561c-21.465 0-38.93 17.468-38.93 38.935 0 21.465 17.465 38.93 38.93 38.93 21.47 0 38.93-17.465 38.93-38.93 0-21.467-17.46-38.935-38.93-38.935m0 104.346c-36.068 0-65.41-29.345-65.41-65.411 0-36.071 29.342-65.414 65.41-65.414 36.07 0 65.413 29.343 65.413 65.414 0 36.066-29.344 65.41-65.413 65.41M699.743 104.107c-3.166.206-6.571.242-10.234.242h-17.173v-77.79h17.173c3.663 0 7.068.04 10.234.241 11.353 1.358 21.217 7.608 27.414 16.595a38.714 38.714 0 0 1 6.878 21.98l.002.065v.029l-.002.063a38.725 38.725 0 0 1-6.878 21.983c-6.197 8.986-16.061 15.233-27.414 16.592m60.777-38.653v-.018c-.008-14.436-4.715-27.787-12.659-38.619C736.305 11.063 717.888.665 697.05.052c-.646-.02-1.292-.052-1.945-.052l-32.847.043c-5.608 0-9.669 1.277-12.178 3.83-2.514 2.555-3.77 6.682-3.77 12.386v98.389c0 5.704 1.256 9.83 3.77 12.387 2.509 2.555 6.57 3.831 12.178 3.831l32.847.04c.653 0 1.299-.031 1.945-.049 20.839-.615 39.256-11.013 50.812-26.767 7.944-10.832 12.651-24.183 12.659-38.618v-.018M450.788.584c-4.78-1.485-9.944.393-12.728 4.635l-39.44 60.078L359.181 5.22C356.4.977 351.233-.9 346.453.584c-4.778 1.486-8.041 5.99-8.041 11.097v106.777c0 6.408 5.081 11.6 11.345 11.6 6.268 0 11.348-5.192 11.348-11.6v-68.67l28.003 42.652.056.087.035.051c.033.053.073.1.108.152.174.255.354.51.553.753.087.108.177.204.267.306.157.18.309.36.476.53.149.153.309.296.468.443.114.104.229.215.349.317.224.188.45.356.685.522.067.046.126.102.194.147.008.008.017.01.029.018.25.17.508.323.772.473.072.043.144.092.217.13.196.108.399.197.604.293a11.115 11.115 0 0 0 3.586 1c.241.022.481.026.718.037.132.005.266.016.395.016.135 0 .264-.011.396-.016.241-.01.48-.015.72-.036a11.12 11.12 0 0 0 3.587-1.001c.202-.096.408-.185.602-.293.076-.038.144-.087.22-.13.263-.15.52-.303.77-.473.012-.007.022-.01.032-.018.066-.045.125-.1.19-.147.235-.166.466-.334.687-.522.121-.102.233-.213.353-.321.155-.143.314-.286.463-.436.17-.173.321-.355.477-.534.091-.1.183-.2.267-.305.197-.244.377-.498.553-.753.035-.053.075-.1.11-.152l.032-.051.058-.087 27.999-42.652v68.67c0 6.408 5.077 11.6 11.352 11.6 6.261 0 11.347-5.192 11.347-11.6V11.681c0-5.106-3.267-9.61-8.047-11.097M299.793 126.926h-84.822c-4.462 0-9.419-2.79-11.255-7.134-1.837-4.34-2.213-10.249 1.737-14.958l69.386-80.506h-57.323c-6.267 0-11.35-5.428-11.35-12.124 0-6.696 5.083-10.786 11.35-10.786h77.299c4.46 0 9.08.71 13.116 5.131 3.688 4.041 3.525 12.762-.606 17.962l-67.041 78.17h59.51c6.267 0 10.83 5.428 10.83 12.122s-4.563 12.123-10.83 12.123M64.94 130.907c-18.823 0-35.893-7.463-48.067-21.015C6.148 97.953 0 82.222 0 66.732 0 18.118 40.41.001 65.884.001c25.046 0 43.431 12.282 44.2 12.802 5.641 3.828 7.15 11.563 3.372 17.276-3.77 5.694-11.37 7.233-17.005 3.448-.329-.21-13.37-8.623-30.567-8.623-15.967 0-37.986 10.538-37.986 41.826 0 17.8 13.24 38.793 37.516 38.793 13.658 0 23.261-3.639 28.843-7.19V79.82H75.342c-6.79 0-12.294-5.573-12.294-12.451 0-6.877 5.505-12.452 12.294-12.452h31.21c6.79 0 12.294 5.575 12.294 12.452v37.035c0 3.369-1.347 6.59-3.73 8.936-8.244 8.103-26.33 17.567-50.176 17.567"/></g></svg>