<svg width="2425" height="416" viewBox="0 0 2425 416" xmlns="http://www.w3.org/2000/svg"><title>Mashable</title><g fill="#00AEEF" fill-rule="evenodd"><path d="M358.421 408.38V138.842L255.788 408.38h-46.47l-103.3-269.538V408.38H.876V.773H146.97l85.583 224.906L317.468.773h146.094V408.38h-105.14zM674.915 408.381v-29.335c-18.304 21.98-53.824 36.69-91.685 36.69-45.215 0-101.463-31.174-101.463-97.2 0-71.46 56.248-95.362 101.463-95.362 39.115 0 73.966 12.87 91.685 34.852V228.69c0-25.658-21.981-43.377-59.925-43.377-29.336 0-58.672 11.617-82.491 31.76l-34.852-65.358c37.944-32.428 88.676-45.8 133.891-45.8 70.874 0 137.485 26.243 137.485 117.927v184.54h-94.108zm0-75.804v-26.244c-9.779-14.04-31.76-20.81-52.57-20.81-24.405 0-47.054 11.032-47.054 34.266 0 23.235 22.649 34.183 47.054 34.183 20.81 0 42.791-7.27 52.57-21.395zM775.71 369.886l39.114-67.197c21.98 19.557 69.034 39.7 103.886 39.7 28.082 0 39.7-7.94 39.7-20.811 0-36.607-171.669 1.254-171.669-118.513 0-51.985 45.216-97.2 126.453-97.2 50.147 0 91.685 15.88 123.444 39.114l-36.022 66.611c-17.718-17.133-51.316-32.345-86.753-32.345-22.065 0-36.69 8.525-36.69 20.143 0 32.344 171.082-1.254 171.082 119.766 0 56.248-49.478 96.532-133.807 96.532-53.155 0-107.564-17.718-138.739-45.8M1260.3 408.381V236.63c0-36.022-18.972-47.64-48.893-47.64-27.497 0-45.8 15.295-56.833 28.751v190.64h-94.108V.774h94.108v148.517c17.719-20.81 52.57-43.376 102.048-43.376 67.197 0 97.786 37.86 97.786 92.27V408.38H1260.3zM1560.944 408.381v-29.335c-18.303 21.98-53.823 36.69-91.684 36.69-45.215 0-101.463-31.174-101.463-97.2 0-71.46 56.248-95.362 101.463-95.362 39.114 0 73.966 12.87 91.684 34.852V228.69c0-25.658-21.98-43.377-59.925-43.377-29.335 0-58.67 11.617-82.49 31.76l-34.852-65.358c37.944-32.428 88.675-45.8 133.89-45.8 70.874 0 137.486 26.243 137.486 117.927v184.54h-94.109zm0-75.804v-26.244c-9.778-14.04-31.759-20.81-52.57-20.81-24.404 0-47.054 11.032-47.054 34.266 0 23.235 22.65 34.183 47.054 34.183 20.811 0 42.792-7.27 52.57-21.395zM1687.397 408.381V.774h94.108v147.264c23.235-29.336 54.994-42.123 87.422-42.123 73.966 0 130.13 58.002 130.13 154.618 0 100.21-57.417 155.203-130.13 155.203-33.013 0-62.933-13.456-87.422-41.538v34.183h-94.108zm150.356-75.804c37.276 0 65.358-27.497 65.358-72.044 0-44.045-28.082-71.542-65.358-71.542-20.142 0-44.63 11.032-56.248 26.912v90.43c11.618 15.88 36.106 26.244 56.248 26.244zM2010.079.783h94.108V408.39h-94.108V.783z"/><g><path d="M2117.593 260.488c0-85.584 64.187-154.619 156.457-154.619 87.422 0 150.94 64.188 150.94 164.397v21.396h-210.197c6.686 26.243 31.175 48.308 73.883 48.308 20.81 0 55.077-9.194 72.127-25.073l40.953 61.68c-29.336 26.327-78.228 39.114-123.444 39.114-91.016 0-160.72-59.256-160.72-155.203m156.458-78.814c-40.953 0-56.833 24.405-60.51 45.8h121.605c-2.424-20.81-17.719-45.8-61.095-45.8"/></g></g></svg>