<?xml version="1.0" encoding="UTF-8"?>
<svg width="32px" height="32px" viewBox="0 0 32 32" version="1.1" xmlns="http://www.w3.org/2000/svg" xmlns:xlink="http://www.w3.org/1999/xlink">
    <!-- Generator: Sketch 64 (93537) - https://sketch.com -->
    <title>crunchbase</title>
    <desc>Created with Sketch.</desc>
    <g id="Page-1" stroke="none" stroke-width="1" fill="none" fill-rule="evenodd">
        <g id="crunchbase" fill="#000000" fill-rule="nonzero">
            <g id="Group">
                <path d="M28.802,0 C30.562,0.005 31.995,1.438 32,3.198 L32,3.198 L32,28.802 C31.995,30.562 30.562,31.995 28.802,32 L28.802,32 L3.198,32 C1.438,31.995 0.005,30.562 0,28.802 L0,28.802 L0,3.198 C0.005,1.438 1.438,0.005 3.198,0 L3.198,0 Z M15.334,15.561 C13.954,9.905 5.636,10.905 5.636,16.728 C5.636,22.546 13.954,23.546 15.334,17.895 L15.334,17.895 L13.12,17.895 C12.474,19.307 10.807,19.932 9.396,19.286 L9.396,19.286 C7.609,18.472 7.182,16.123 8.573,14.738 C9.959,13.347 12.307,13.775 13.12,15.561 L13.12,15.561 Z M18.572,7.161 L16.572,7.161 L16.572,21.255 L18.588,21.255 L18.588,20.745 C19.922,21.646 21.609,21.833 23.104,21.255 C23.625,21.057 24.099,20.776 24.521,20.411 L24.521,20.411 C27.978,17.457 25.884,11.791 21.332,11.801 L21.332,11.801 L20.973,11.801 C20.114,11.869 19.286,12.156 18.572,12.64 L18.572,12.64 L18.572,7.161 Z" id="Combined-Shape"></path>
            </g>
            <path d="M24.224,16.724 C24.255,18.297 22.99,19.594 21.417,19.594 C19.844,19.594 18.578,18.297 18.615,16.724 C18.693,13.068 24.141,13.068 24.224,16.724 L24.224,16.724 Z" id="Path"></path>
        </g>
    </g>
</svg>