<?xml version="1.0" encoding="UTF-8"?>
<svg width="512px" height="390px" viewBox="0 0 512 390" version="1.1" xmlns="http://www.w3.org/2000/svg" xmlns:xlink="http://www.w3.org/1999/xlink">
    <!-- Generator: Sketch 64 (93537) - https://sketch.com -->
    <title>email</title>
    <desc>Created with Sketch.</desc>
    <g id="Page-1" stroke="none" stroke-width="1" fill="none" fill-rule="evenodd">
        <g id="email" fill="#000000" fill-rule="nonzero">
            <path d="M467,0 L45,0 C20.218,0 0,20.196 0,45 L0,345 C0,369.72 20.128,390 45,390 L467,390 C491.72,390 512,369.872 512,345 L512,45 C512,20.28 491.872,0 467,0 Z M460.786,30 L256.954,233.833 L51.359,30 L460.786,30 Z M30,338.788 L30,51.069 L174.479,194.309 L30,338.788 Z M51.213,360 L195.783,215.43 L246.44,265.652 C252.304,271.466 261.767,271.447 267.607,265.606 L317,216.213 L460.787,360 L51.213,360 Z M482,338.787 L338.213,195 L482,51.212 L482,338.787 Z" id="Shape"></path>
        </g>
    </g>
</svg>