<?xml version="1.0" encoding="iso-8859-1"?>
<!-- Generator: Adobe Illustrator 19.0.0, SVG Export Plug-In . SVG Version: 6.00 Build 0)  -->
<svg version="1.1" id="Layer_1" xmlns="http://www.w3.org/2000/svg" xmlns:xlink="http://www.w3.org/1999/xlink" x="0px" y="0px"
	 viewBox="0 0 512 512" style="enable-background:new 0 0 512 512;" xml:space="preserve">
<circle style="fill:#2E2D30;" cx="256" cy="256" r="256"/>
<path style="fill:#1D1D20;" d="M256,0c-11.317,0-22.461,0.744-33.391,2.167C348.216,18.53,445.217,125.933,445.217,256
	s-97.002,237.47-222.609,253.833C233.539,511.256,244.683,512,256,512c141.385,0,256-114.616,256-256S397.385,0,256,0z"/>
<path style="fill:#E0E0E3;" d="M256,47.304c-115.075,0-208.696,93.62-208.696,208.696S140.925,464.696,256,464.696
	S464.696,371.075,464.696,256S371.075,47.304,256,47.304z M377.919,183.451l41.499-28.128
	c13.274,21.468,22.446,45.727,26.395,71.683l-49.87,5.412C392.981,214.788,386.76,198.252,377.919,183.451z M134.081,328.549
	l-41.499,28.128c-13.274-21.468-22.446-45.727-26.395-71.683l49.87-5.412C119.019,297.212,125.24,313.748,134.081,328.549z
	 M148.281,192.228l41.444,28.43C184.081,231.2,180.87,243.23,180.87,256c0,11.605,2.647,22.6,7.365,32.422l-42.645,26.593
	c-9.442-17.594-14.807-37.689-14.807-59.015C130.783,232.725,137.173,210.918,148.281,192.228z M256,314.435
	c-32.22,0-58.435-26.213-58.435-58.435S223.78,197.565,256,197.565s58.435,26.213,58.435,58.435S288.22,314.435,256,314.435z
	 M264.348,181.345v-50.277c36.389,2.408,68.578,20.422,89.912,47.403l-41.458,28.439
	C300.732,192.963,283.636,183.487,264.348,181.345z M264.348,114.34V64.193c26.434,1.136,51.499,7.638,74.131,18.448l-23.491,44.301
	C299.409,119.792,282.322,115.387,264.348,114.34z M247.652,114.34c-23.216,1.353-44.948,8.313-63.865,19.542l-28.015-41.58
	c26.968-16.573,58.321-26.665,91.881-28.109V114.34z M247.652,131.068v50.277c-19.288,2.143-36.384,11.618-48.455,25.567
	l-41.458-28.439C179.074,151.49,211.263,133.475,247.652,131.068z M197.106,302.565c12.142,15.326,30.116,25.82,50.547,28.09v50.277
	c-38.315-2.534-71.972-22.377-93.205-51.765L197.106,302.565z M247.652,397.66v50.147c-26.434-1.136-51.499-7.638-74.131-18.448
	l23.491-44.301C212.591,392.208,229.678,396.613,247.652,397.66z M264.348,397.66c23.216-1.353,44.948-8.313,63.865-19.542
	l28.015,41.58c-26.968,16.573-58.321,26.665-91.881,28.109V397.66z M264.348,380.932v-50.277
	c20.431-2.27,38.403-12.766,50.547-28.09l42.659,26.602C336.319,358.556,302.663,378.398,264.348,380.932z M366.411,315.015
	l-42.645-26.594c4.718-9.822,7.365-20.817,7.365-32.422c0-12.77-3.211-24.801-8.855-35.342l41.444-28.43
	c11.108,18.692,17.498,40.499,17.498,63.774C381.217,277.326,375.853,297.421,366.411,315.015z M410.037,141.511l-41.505,28.132
	c-10.664-13.864-23.821-25.714-38.805-34.861l23.486-44.291C375.385,103.564,394.719,120.956,410.037,141.511z M141.94,101.651
	l28.015,41.579c-14.938,11.425-27.554,25.739-36.993,42.11l-44.869-22.367C101.49,138.89,119.912,117.971,141.94,101.651z
	 M80.617,177.902l44.877,22.37c-7.337,17.117-11.406,35.956-11.406,55.728c0,2.342,0.06,4.669,0.174,6.983l-49.85,5.409
	C64.148,264.293,64,260.164,64,256C64,228.205,69.945,201.775,80.617,177.902z M101.963,370.489l41.505-28.132
	c10.664,13.864,23.821,25.714,38.805,34.861l-23.486,44.291C136.615,408.436,117.281,391.044,101.963,370.489z M370.06,410.349
	l-28.015-41.579c14.938-11.425,27.555-25.739,36.993-42.11l44.869,22.365C410.51,373.11,392.088,394.029,370.06,410.349z
	 M431.383,334.098l-44.877-22.37c7.337-17.117,11.406-35.956,11.406-55.728c0-2.342-0.06-4.669-0.174-6.983l49.85-5.409
	C447.852,247.707,448,251.836,448,256C448,283.795,442.055,310.225,431.383,334.098z"/>
<g>
</g>
<g>
</g>
<g>
</g>
<g>
</g>
<g>
</g>
<g>
</g>
<g>
</g>
<g>
</g>
<g>
</g>
<g>
</g>
<g>
</g>
<g>
</g>
<g>
</g>
<g>
</g>
<g>
</g>
</svg>
