<svg width="12" height="11" viewBox="0 0 12 11" xmlns="http://www.w3.org/2000/svg"><g fill="none" fill-rule="evenodd"><path d="M6 8.836l-2.678 1.636a.5.5 0 0 1-.747-.543l.728-3.053L.919 4.835a.5.5 0 0 1 .286-.878l3.128-.251L5.538.808a.5.5 0 0 1 .924 0l1.205 2.898 3.128.25a.5.5 0 0 1 .286.879L8.697 6.876l.728 3.053a.5.5 0 0 1-.747.543L6 8.836z" fill="#4D61FC"/><path d="M9.72 6l1.36-1.165a.5.5 0 0 0-.285-.878l-3.128-.251L6.462.808A.493.493 0 0 0 6 .5V6h3.72z" fill-rule="nonzero" fill="#CDD3FF"/></g></svg>