<?xml version="1.0" encoding="iso-8859-1"?>
<!-- Generator: Adobe Illustrator 16.0.0, SVG Export Plug-In . SVG Version: 6.00 Build 0)  -->
<!DOCTYPE svg PUBLIC "-//W3C//DTD SVG 1.1//EN" "http://www.w3.org/Graphics/SVG/1.1/DTD/svg11.dtd">
<svg version="1.1" id="Capa_1" xmlns="http://www.w3.org/2000/svg" xmlns:xlink="http://www.w3.org/1999/xlink" x="0px" y="0px"
	 width="48.016px" height="48.016px" viewBox="0 0 48.016 48.016" style="enable-background:new 0 0 48.016 48.016;"
	 xml:space="preserve">
<g>
	<g id="Lego_Square">
		<g>
			<path d="M24.185,15.672c-2.414,0-4.235-1.051-4.235-2.444c0-1.394,1.821-2.445,4.235-2.445s4.233,1.051,4.233,2.445
				S26.599,15.672,24.185,15.672z M24.185,12.283c-1.702,0-2.735,0.657-2.735,0.945s1.033,0.944,2.735,0.944
				c1.701,0,2.733-0.656,2.733-0.944C26.918,12.954,25.961,12.283,24.185,12.283z"/>
			<path d="M24.185,20.325c-2.414,0-4.235-1.051-4.235-2.445v-4.651c0-0.414,0.336-0.75,0.75-0.75s0.75,0.336,0.75,0.75v4.651
				c0,0.289,1.033,0.945,2.735,0.945c1.776,0,2.733-0.671,2.733-0.945v-4.651c0-0.414,0.336-0.75,0.75-0.75s0.75,0.336,0.75,0.75
				v4.651C28.418,19.274,26.599,20.325,24.185,20.325z"/>
		</g>
		<g>
			<path d="M33.856,10.312c-2.415,0-4.235-1.05-4.235-2.443c0-1.395,1.82-2.446,4.235-2.446c2.414,0,4.235,1.051,4.235,2.446
				C38.092,9.261,36.271,10.312,33.856,10.312z M33.856,6.922c-1.702,0-2.735,0.657-2.735,0.946c0,0.288,1.033,0.943,2.735,0.943
				s2.735-0.655,2.735-0.943C36.592,7.594,35.633,6.922,33.856,6.922z"/>
			<path d="M33.856,14.964c-2.415,0-4.235-1.051-4.235-2.445V7.868c0-0.414,0.336-0.75,0.75-0.75s0.75,0.336,0.75,0.75v4.651
				c0,0.289,1.033,0.945,2.735,0.945c1.776,0,2.735-0.671,2.735-0.945V7.868c0-0.414,0.336-0.75,0.75-0.75s0.75,0.336,0.75,0.75
				v4.651C38.092,13.913,36.271,14.964,33.856,14.964z"/>
		</g>
		<g>
			<path d="M14.367,10.329c-2.414,0-4.235-1.05-4.235-2.443c0-1.394,1.821-2.445,4.235-2.445s4.234,1.051,4.234,2.445
				C18.601,9.279,16.781,10.329,14.367,10.329z M14.367,6.941c-1.776,0-2.735,0.671-2.735,0.945c0,0.288,1.033,0.943,2.735,0.943
				c1.701,0,2.734-0.655,2.734-0.943C17.101,7.612,16.143,6.941,14.367,6.941z"/>
			<path d="M14.367,14.982c-2.414,0-4.235-1.051-4.235-2.445V7.886c0-0.414,0.336-0.75,0.75-0.75c0.414,0,0.75,0.336,0.75,0.75
				v4.651c0,0.274,0.959,0.945,2.735,0.945c1.776,0,2.734-0.671,2.734-0.945V7.886c0-0.414,0.336-0.75,0.75-0.75
				s0.75,0.336,0.75,0.75v4.651C18.601,13.931,16.781,14.982,14.367,14.982z"/>
		</g>
		<g>
			<path d="M24.25,4.889c-2.415,0-4.236-1.05-4.236-2.443C20.015,1.051,21.835,0,24.25,0c2.414,0,4.234,1.051,4.234,2.446
				C28.485,3.839,26.666,4.889,24.25,4.889z M24.25,1.5c-1.702,0-2.736,0.657-2.736,0.946c0,0.288,1.034,0.943,2.736,0.943
				c1.701,0,2.734-0.655,2.734-0.943C26.985,2.171,26.027,1.5,24.25,1.5z"/>
			<path d="M24.25,9.542c-2.415,0-4.236-1.051-4.236-2.445V2.446c0-0.414,0.336-0.75,0.75-0.75s0.75,0.336,0.75,0.75v4.651
				c0,0.289,1.034,0.945,2.736,0.945c1.701,0,2.734-0.656,2.734-0.945V2.446c0-0.414,0.336-0.75,0.75-0.75s0.75,0.336,0.75,0.75
				v4.651C28.485,8.491,26.666,9.542,24.25,9.542z"/>
		</g>
		<g>
			<path d="M23.901,48.016c-0.169,0-0.338-0.043-0.49-0.129L4.404,37.186c-0.316-0.178-0.51-0.511-0.51-0.871V13.306
				c0-0.356,0.189-0.685,0.497-0.864c0.307-0.179,0.687-0.181,0.997-0.005l19.01,10.8c0.312,0.178,0.506,0.51,0.506,0.87
				l-0.003,22.909c0,0.355-0.188,0.685-0.495,0.863C24.25,47.97,24.077,48.016,23.901,48.016z M5.895,35.729l17.007,9.576
				l0.003-20.618l-17.01-9.663V35.729z"/>
			<path d="M23.904,48.011c-0.175,0-0.35-0.046-0.505-0.137c-0.307-0.179-0.495-0.508-0.495-0.863V24.106
				c0-0.362,0.195-0.696,0.512-0.873l19.216-10.759c0.309-0.173,0.688-0.169,0.994,0.01c0.307,0.179,0.494,0.508,0.494,0.863
				l-0.018,22.887c0,0.36-0.195,0.695-0.511,0.871L24.394,47.883C24.243,47.969,24.074,48.011,23.904,48.011z M24.904,24.692v20.611
				l17.199-9.654l0.016-20.596L24.904,24.692z"/>
			<path d="M42.912,14.223c-0.16,0-0.324-0.039-0.477-0.121l-5.229-2.84c-0.484-0.264-0.664-0.871-0.4-1.356
				c0.264-0.485,0.869-0.664,1.355-0.401l5.229,2.84c0.484,0.264,0.665,0.871,0.4,1.356C43.61,14.034,43.267,14.223,42.912,14.223z"
				/>
			<path d="M30.6,7.714c-0.154,0-0.312-0.036-0.458-0.112l-2.487-1.285c-0.49-0.253-0.683-0.856-0.43-1.347
				c0.253-0.49,0.857-0.684,1.348-0.429l2.487,1.285c0.489,0.253,0.683,0.856,0.431,1.347C31.312,7.517,30.961,7.714,30.6,7.714z"/>
			<path d="M4.937,14.223c-0.354,0-0.698-0.189-0.88-0.522c-0.264-0.485-0.084-1.093,0.401-1.356l5.228-2.84
				c0.483-0.263,1.093-0.085,1.356,0.4c0.264,0.485,0.084,1.093-0.401,1.355l-5.228,2.84C5.262,14.184,5.098,14.223,4.937,14.223z"
				/>
			<path d="M17.625,7.548c-0.362,0-0.713-0.198-0.89-0.542c-0.253-0.491-0.061-1.094,0.431-1.347l2.736-1.41
				c0.49-0.252,1.095-0.06,1.347,0.431c0.253,0.491,0.061,1.094-0.431,1.347l-2.736,1.41C17.936,7.512,17.779,7.548,17.625,7.548z"
				/>
		</g>
	</g>
	<g>
	</g>
	<g>
	</g>
	<g>
	</g>
	<g>
	</g>
	<g>
	</g>
	<g>
	</g>
	<g>
	</g>
	<g>
	</g>
	<g>
	</g>
	<g>
	</g>
	<g>
	</g>
	<g>
	</g>
	<g>
	</g>
	<g>
	</g>
	<g>
	</g>
</g>
<g>
</g>
<g>
</g>
<g>
</g>
<g>
</g>
<g>
</g>
<g>
</g>
<g>
</g>
<g>
</g>
<g>
</g>
<g>
</g>
<g>
</g>
<g>
</g>
<g>
</g>
<g>
</g>
<g>
</g>
</svg>
