<?xml version="1.0" encoding="UTF-8"?>
<svg width="59px" height="41px" viewBox="0 0 59 41" version="1.1" xmlns="http://www.w3.org/2000/svg" xmlns:xlink="http://www.w3.org/1999/xlink">
    <!-- Generator: Sketch 47.1 (45422) - http://www.bohemiancoding.com/sketch -->
    <title>email</title>
    <desc>Created with Sketch.</desc>
    <defs></defs>
    <g id="Page-1" stroke="none" stroke-width="1" fill="none" fill-rule="evenodd">
        <g id="email" transform="translate(0.000000, -1.000000)" fill-rule="nonzero" fill="#40A9FF">
            <path d="M0.520000069,7.160972 L0.520000069,35.8175138 C0.520000069,38.9124398 2.977435,41.5100138 6.04,41.5100138 L52.96,41.5100138 C56.022703,41.5100138 58.48,38.9124398 58.48,35.8175138 L58.48,7.160972 C58.48,4.065977 56.022703,1.49 52.96,1.49 L6.04,1.49 C2.977435,1.49 0.520000069,4.065977 0.520000069,7.160972 Z M6.04,4.25 L52.96,4.25 C53.364823,4.25 53.756536,4.348808 54.102847,4.50875 L31.289722,25.6184858 C30.235678,26.5935248 28.830976,26.5936628 27.775,25.6184858 L4.91875,4.50875 C5.260645,4.353845 5.641939,4.25 6.04,4.25 Z M19.516597,21.7587638 L3.625,37.2190418 C3.415309,36.8048348 3.28,36.3353588 3.28,35.8175138 L3.28,7.160972 C3.28,7.03415 3.30967,6.915884 3.32347,6.794375 L19.516597,21.7587638 Z M55.719724,7.160765 L55.719724,35.8173068 C55.719724,36.3243188 55.597939,36.7891028 55.396321,37.1973068 L39.547918,21.7370288 L55.676668,6.815765 C55.689364,6.930443 55.719724,7.041326 55.719724,7.160765 Z M53.04625,38.7498068 C53.02693,38.7498068 37.35818,38.7498068 6.04,38.7498068 C6.02528,38.7498068 11.193035,33.7041818 21.543265,23.6129318 L25.89889,27.6450848 C27.946465,29.5362368 31.118326,29.5388588 33.165487,27.6450848 L37.54264,23.5913348 L53.04625,38.7498068 Z" id="Shape"></path>
        </g>
    </g>
</svg>