<svg width="175" height="53" viewBox="0 0 175 53" xmlns="http://www.w3.org/2000/svg"><title>mailchimp-text</title><g fill-rule="nonzero" fill="none"><path d="M44.941 48.014a.843.843 0 0 1-.624.252.856.856 0 0 1-.873-.88c0-.252.083-.482.27-.65.167-.167.374-.23.603-.23a.856.856 0 0 1 .873.88.722.722 0 0 1-.249.628m-1.123-1.152a.683.683 0 0 0-.208.503c0 .21.063.377.208.524.146.146.312.209.52.209a.687.687 0 0 0 .52-.21.698.698 0 0 0 .208-.523.652.652 0 0 0-.208-.503.706.706 0 0 0-.52-.23.795.795 0 0 0-.52.23m.79.964a.398.398 0 0 1-.25.083.485.485 0 0 1-.353-.146.507.507 0 0 1-.145-.377c0-.147.041-.273.125-.377.083-.105.207-.147.353-.147a.55.55 0 0 1 .25.063.433.433 0 0 1 .208.335h-.23c-.02-.063-.04-.126-.082-.147a.294.294 0 0 0-.125-.041.189.189 0 0 0-.167.083.45.45 0 0 0-.062.252c0 .104.02.188.062.23.042.042.104.084.167.084.062 0 .104-.021.145-.042l.063-.126h.208a.41.41 0 0 1-.167.273m2.205-9.301c0-.084-.021-.168-.021-.252 0-.063-.02-.105-.02-.147a2.205 2.205 0 0 0-.084-.356 2.031 2.031 0 0 0-.374-.65 2.085 2.085 0 0 0-.541-.439 2.827 2.827 0 0 0-.582-.21c-.063 0-.104-.02-.146-.02a3.121 3.121 0 0 0-.25-2.137l.042-.042c.25-.251.458-.482.645-.712l.041-.042c.146-.21.23-.42.292-.608.041-.167.083-.314.083-.46v-.399c-.021-.314-.063-.712-.27-1.152-.105-.21-.25-.44-.437-.65a2.553 2.553 0 0 0-.687-.544c-.02-.02-.041-.02-.062-.042a10.19 10.19 0 0 0-1.747-1.948c-.291-.251-.561-.46-.79-.628-.229-.168-.416-.294-.52-.378a3.588 3.588 0 0 0-.52-.335 5.1 5.1 0 0 1-.437-.293c-.062-.063-.104-.084-.124-.105 0 0 0-.02-.021-.063-.021-.062-.021-.146-.021-.293 0-.21 0-.524.02-.943.042-.67.105-1.57.188-2.807.02-.398.02-.775.02-1.11a8.225 8.225 0 0 0-.207-1.53c-.021-.104-.063-.209-.083-.313-.021-.084-.042-.126-.063-.168a1.45 1.45 0 0 0-.083-.21c-.02-.041-.02-.083-.062-.125a2.121 2.121 0 0 0-.146-.314l-.02-.021-.022-.063-.02-.042a3.068 3.068 0 0 0-.354-.503 7.698 7.698 0 0 0-.353-1.194 6.846 6.846 0 0 0-.687-1.34c-.104-.168-.228-.315-.353-.462l.041-.041a21.483 21.483 0 0 0 2.683-3.625c2.142-3.75 1.435-6.033.458-7.29l-.021-.042-.021-.041c-.936-1.048-2.225-1.676-3.785-1.886-3.265-.419-6.967 1.215-7.944 1.676l-1.789-1.97a3.572 3.572 0 0 0-.52-.46 5.72 5.72 0 0 0-.603-.356 4.74 4.74 0 0 0-1.372-.377c-.978-.126-2.1 0-3.307.314-1.81.46-3.826 1.383-5.948 2.66-2.12 1.278-4.325 2.933-6.467 4.903-2.62 2.388-4.784 4.922-6.364 7.352-.79 1.195-1.435 2.368-1.913 3.499C.686 19.9.375 20.97.25 21.933c-.084.712-.084 1.383.062 1.99.062.273.146.524.27.775.146.315.333.608.562.86l1.85 1.948.209.209-.021.021-.063.126c-.041.063-.062.125-.104.167l-.062.126c-.02.063-.062.126-.083.188l-.062.126c-.021.063-.063.126-.084.189a.3.3 0 0 0-.041.125l-.063.189c-.02.042-.02.084-.041.126-.021.062-.042.125-.063.21 0 .02-.02.041-.02.062 0 .02-.021.042-.021.063-.021.063-.042.146-.063.21 0 .041-.02.083-.02.125 0 .02-.021.063-.021.084 0 .042-.021.084-.021.125 0 .042-.02.084-.02.126-.022.084-.022.168-.042.272 0 .021 0 .042-.021.084v.021c0 .063-.021.126-.021.168 0 .084-.02.188-.02.272v1.048c0 .041 0 .083.02.125 0 .042 0 .105.02.168v.063c0 .042.022.104.022.146 0 .042.02.084.02.147 0 .02 0 .042.021.063 0 .02.021.063.021.084v.042c0 .041.02.083.042.167 0 .021 0 .021.02.042.021.042.021.084.021.105l.021.042c0 .02 0 .02.02.042l.022.041v.063c0 .021 0 .021.02.042l.021.042c0 .042.021.063.021.105.02.042.02.084.042.167v-.02.02c0 .021 0 .021.02.042.021.063.042.105.042.126.02.042.042.084.062.168l.021.02c.02.042.02.084.042.105l.02.042c0 .021.021.042.021.063 0 .021.021.063.042.084l.02.042c.022.02.022.063.042.084.021.02.021.041.021.062.02.042.042.084.062.147l.021.021c.021.02.021.042.042.063.02.02.02.063.041.084.021.02.042.062.063.125l.02.021c.021.021.021.042.042.063.021.042.042.063.042.084.02.02.041.063.062.105v.02c.021.022.021.042.042.063.02.042.041.063.062.084.021.021.042.063.083.126.021.02.042.042.042.063.02.042.042.063.062.084.021.02.042.062.063.104.02.021.041.063.062.084.021.042.042.063.083.084l.063.063.02.02c.042.043.063.084.105.126l.041.042.062.063.125.126.042.042.062.063.021.02c.042.042.104.084.146.147l.02.021c.021.021.042.021.063.063.062.063.125.105.187.168l.042.02.02.021.042.021c.062.042.104.084.166.126l.021.021c.02.02.042.02.042.02l.041.043c.042.042.084.063.125.105l.042.02.041.042.021.021c.042.021.104.063.146.084.02.021.041.042.083.042l.041.021.021.021h.021c.083.042.146.084.208.126l.042.02.25.126h.02l.042.021.124.063c.021 0 .042.021.063.021.02.021.041.021.083.042h.02c.042.02.084.042.125.042h.021c.042.02.083.042.146.063h.02l.042.02c.021 0 .042.022.063.022h.02c.063.02.125.041.208.062h.021c.104.042.208.063.312.084h.02c.084.021.188.042.271.063h.083c.084.021.167.042.25.042h.083c.063 0 .104.02.167.02 0 .022.02.043.02.064.146.398.292.796.458 1.173 2.454 6.85 9.254 12.171 17.011 13.156 7.757.963 16.055-4.232 19.424-11.25.146-.272.27-.524.395-.796.333-.356.604-.712.77-1.09.27-.23.333-.69.312-1.088M3.743 35.8h.021-.02" fill="#664F44"/><path d="M40.179 4.253a4.089 4.089 0 0 0-1.29-.964 1.024 1.024 0 0 0-.27-.084c-.042-.02-.083-.063-.125-.084a5.474 5.474 0 0 0-1.31-.335c-2.246-.293-4.825.545-6.28 1.131-.084.042-.167.063-.25.105-.125.063-.25.105-.374.168-.208.084-.416.188-.645.293-.042.021-.062.021-.104.042l-.395-.461-.187-.21-.167-.188-.062-.084-1.518-1.76-.125-.146-.166-.189h-.021l-.437.105-.499.105c-.27-.126-.603-.21-.977-.272-.75-.105-1.706 0-2.787.272-1.082.272-2.309.754-3.598 1.403-2.6 1.3-5.47 3.29-8.256 5.845a41.38 41.38 0 0 0-2.704 2.702c-.81.88-1.539 1.781-2.204 2.64-1.352 1.78-2.37 3.498-3.036 5.049-.437 1.026-.707 1.969-.811 2.786-.084.586-.063 1.11.041 1.529.042.147.083.251.125.377.104.251.229.46.395.65l1.685 1.78.187.189.02-.021a.635.635 0 0 1 .167-.168l.02-.02.063-.064c.042-.063.104-.104.146-.167a.366.366 0 0 1 .104-.084c.041-.021.062-.063.104-.084l.041-.042c.042-.02.063-.063.104-.084.042-.041.104-.083.146-.125.02-.021.062-.042.083-.063h.02c.063-.042.105-.084.167-.126a.366.366 0 0 0 .104-.084c.062-.041.104-.083.166-.125.042-.021.063-.042.104-.063a.841.841 0 0 1 .188-.105c.041-.02.062-.042.104-.063.062-.042.124-.063.187-.104.041-.021.062-.042.104-.063l.041-.021c.063-.021.104-.063.167-.084.02-.021.062-.021.083-.042.041-.02.083-.042.145-.063l.125-.063.042-.02.312-.126c.041-.021.062-.021.104-.042.041-.021.062-.021.104-.042l.041-.021c.021 0 .042-.021.063-.021.041-.02.083-.02.145-.042h.042c.062-.02.104-.02.166-.042.042-.02.104-.02.146-.042.062-.02.125-.02.187-.042.02 0 .042-.02.083-.02.021 0 .063 0 .083-.021.063-.021.125-.021.188-.021.062 0 .104-.021.166-.021.042 0 .083-.021.125-.021h.166c.208 0 .458 0 .707.02h.042c.25.022.54.063.832.126.062.021.145.021.208.042.02-.02.02-.063.041-.084.167-.272.312-.565.478-.837a31.793 31.793 0 0 1 2.954-4.17c.353-.418.707-.795 1.06-1.172a27.622 27.622 0 0 1 4.284-3.666c.291-.21.603-.398.874-.587.395-.251.77-.46 1.123-.67.29-.168.561-.315.832-.44.436-.23.831-.42 1.185-.566l.312-.126c.146-.062.291-.125.416-.167-.104-.021-.229-.021-.333-.021h-.416c-.104 0-.229 0-.333.02-.208.022-.436.043-.665.064-.083.02-.146.02-.229.042a10.431 10.431 0 0 1 1.643-.67c.354-.105.707-.19 1.04-.252.457-.084.894-.147 1.29-.168.27-.02.52-.02.748-.02.229 0 .458.02.645.02a6.628 6.628 0 0 1 1.102.147 1.903 1.903 0 0 0-.354-.356 3.487 3.487 0 0 0-.77-.42c-.103-.041-.186-.062-.27-.104a.639.639 0 0 0-.166-.042c.125-.02.229-.042.333-.042.125-.02.229-.02.353-.042.978-.083 1.851 0 2.496.105.77.147 1.248.335 1.248.335a1.954 1.954 0 0 0-.458-.565 4.8 4.8 0 0 0-.395-.294c.27.063.5.126.749.21.624.188 1.144.419 1.56.607l.374.189c.042.02.062.042.083.042.374.21.582.356.582.356a1.58 1.58 0 0 0-.353-.628c-.042-.042-.083-.105-.125-.147h.02c.022 0 .042.02.084.02.02 0 .062.022.104.043.166.063.416.167.707.314.02 0 .02.02.042.02l.124.064c.104.063.208.104.312.188l.312.189c.063.042.104.063.167.105.104.083.229.167.333.272.124.105.228.21.332.314l.063.063c.083.084.166.168.228.251.146.168.27.356.396.545.145.23.25.503.353.775 0 .021 0 .042.02.042.063-.063.188-.189.334-.356 1.206-1.425 4.824-6.033 2.64-8.84" fill="#132134"/><path d="M45.565 38.671s.042-.314-.125-.607c0-.021-.02-.042-.02-.042L45.398 38l-.063-.063c-.041-.042-.083-.084-.145-.126a.454.454 0 0 0-.104-.063 1.42 1.42 0 0 0-.354-.104c-.104-.021-.208-.021-.333-.021h-.166v.042c0 .02.02.042.02.083 0 .021 0 .042.022.042.02.063.041.168.062.252 0 0 0 .02-.02.063v.02c-.063.147-.23.482-.604.901-.062.084-.125.147-.208.23-1.04 1.09-3.286 2.62-8.027 3.478-1.602.23-3.099.252-4.347.084-1.871-.23-3.265-.838-3.93-1.655-.063-.063-.104-.147-.167-.21-.041-.062-.062-.104-.104-.167-.02-.021-.02-.042-.041-.063a3.322 3.322 0 0 1-.395-1.571c0-.65.208-1.257.54-1.718.27-.377.624-.67 1.061-.796.208-.063.437-.105.666-.084.041 0 .103 0 .187.021.145.021.374.042.644.084.021 0 .063 0 .084.021.894.105 2.308.251 4.013.147 3.12-.189 7.217-1.173 10.94-4.567v-.021c.02-.293-.022-.796-.375-1.194-.063-.063-.125-.126-.208-.189-.042-.042-.104-.063-.146-.104-.062-.021-.104-.063-.145-.084l-.187-.126v-.02a.439.439 0 0 0-.084-.127c-.956-1.466-2.287-2.325-2.828-2.723-.25-.188-.416-.272-.416-.272-1.144-.712-1.31-.943-1.206-2.85.042-.69.104-1.591.187-2.827 0-.168.02-.315.02-.461v-.608c0-.104-.02-.21-.02-.293 0-.042 0-.084-.02-.126-.021-.104-.021-.21-.042-.314 0-.042-.021-.105-.021-.147 0-.062-.02-.104-.042-.167-.02-.042-.02-.105-.041-.147a.615.615 0 0 1-.042-.188c0-.021-.02-.042-.02-.063 0-.021-.021-.042-.021-.063v-.02l-.021-.064a.3.3 0 0 1-.042-.125v-.021l-.02-.042-.021-.042c-.042-.084-.063-.168-.104-.23l-.021-.063c-.042-.063-.083-.147-.125-.21l-.02-.02-.022-.022c-.041-.042-.062-.084-.104-.126l-.041-.062c-.042-.063-.083-.105-.125-.147v-.168a6.858 6.858 0 0 1-.062-.293c0-.02-.021-.063-.021-.084v-.02c0-.043-.02-.063-.02-.105a1.187 1.187 0 0 0-.084-.252c0-.02-.02-.063-.02-.084l-.063-.188c-.021-.042-.021-.084-.042-.105a.747.747 0 0 0-.083-.188l-.062-.126c-.021-.063-.063-.126-.084-.189l-.062-.125c-.042-.063-.062-.126-.104-.189l-.062-.126a1.845 1.845 0 0 1-.125-.209c-.021-.042-.042-.063-.063-.105-.02-.02-.041-.063-.062-.084-.062-.062-.104-.125-.166-.188l-.042-.021c-.083-.084-.145-.168-.229-.23l-.02-.021c-.042-.021-.084-.063-.104-.084h-.021c-.042-.021-.063-.042-.104-.063l-.021-.021c-.042-.021-.104-.063-.187-.105-.021-.02-.063-.02-.104-.042-.187-.063-.416-.146-.707-.23-.021 0-.042 0-.063-.021a6.494 6.494 0 0 0-.79-.168c-.104-.02-.187-.02-.291-.042-.042 0-.083 0-.146-.02h-.062c-.229-.021-.437-.042-.666-.042h-.02a3.8 3.8 0 0 0-.853.083c.062-.104.25-.23.416-.335.229-.125.437-.21.437-.21-.125 0-.25.022-.375.043-.041 0-.083.02-.124.02-.021 0-.063 0-.084.022h-.02c-.021 0-.042 0-.063.02-.644.147-1.268.378-1.622.524l-.125.063h-.02c-.042 0-.063 0-.104.021.25-.482.623-.733.915-.859.041-.02.104-.042.145-.063.02 0 .02 0 .042-.02.041-.022.083-.022.104-.043.062-.02.104-.02.104-.02h-.333a4.935 4.935 0 0 0-1.893.628 7.56 7.56 0 0 0-.998.67c-.083.021-.145.042-.229.042-.79.168-1.684.377-2.62.67-.353.105-.707.231-1.06.357-.27.104-.562.21-.832.314-.208.084-.395.167-.603.251-1.435.65-2.87 1.509-4.056 2.66l-.125.126-.311.315-.125.125c-.042.063-.104.126-.146.168a8.545 8.545 0 0 0-.645.817 7.23 7.23 0 0 0-.415.67l-.021.021c-.27.482-.52.985-.707 1.55-.104.273-.187.566-.27.86-.021.083-.042.146-.063.23l-.02.042c-.084.314-.146.65-.188.984 0 .063-.02.126-.02.21-.022.167-.042.335-.042.523-.021.168-.021.315-.021.482v.65c0 .188 0 .377.02.565v.021c0 .189.021.377.042.587 0 .084.021.167.021.251v.063c0 .042 0 .084.02.147.022.21.063.44.084.67 0 .063.02.126.02.189.042.188.063.398.105.586 0 0-.042-.251-.021-.628 0-.084.02-.189.02-.273.022-.21.063-.46.146-.691l.063-.188c0-.021.02-.042.041-.084.042-.105.104-.23.167-.335.02.083.02.167.041.23v1.11c.021.712.083 1.571.229 2.305 0 0 .02-1.32.25-1.488 0 0 .395 2.472.748 3.394.042.126.104.21.146.272v-.251l-.042-1.362v-.146c.27.565.583 1.13.936 1.738.104.168.187.335.291.503-.665.587-1.29 1.446-1.747 2.451-.062.168-.145.335-.208.503-.041.105-.062.188-.104.293 0 .021-.02.063-.02.084-.021.063-.042.147-.063.21 0 .041-.02.062-.02.104-.021.063-.042.147-.063.21 0 .042-.02.062-.02.104l-.063.315c-.021.104-.042.21-.042.314 0 .042 0 .063-.02.105 0 .083-.021.146-.021.23 0 .042 0 .084-.021.126 0 .083-.021.146-.021.23v.733c0 .084 0 .168.02.273v.062c0 .105.022.21.042.336 0 .042 0 .063.021.104 0 .084.021.147.042.23 0 .043.02.085.02.127.021.062.021.146.042.209 0 .042.021.084.021.126.02.063.042.125.042.21.02.041.02.083.041.146.021.063.042.146.063.21.02.041.02.083.041.125.021.063.042.147.063.21.02.041.02.083.041.125.02.084.063.168.083.23.021.043.021.063.042.105l.312.692c.02.042.041.063.062.104l.125.252c.02.042.042.084.083.126.042.062.083.146.125.209.02.042.062.084.083.126.042.063.083.146.146.21.041.041.062.083.104.146.041.063.104.146.145.21.042.041.063.083.104.146.063.063.104.147.167.21.041.041.062.083.104.125.062.084.124.147.208.23l.104.105c.104.105.208.23.312.335 0 0-.063-.083-.146-.25a.16.16 0 0 1-.042-.106l-.062-.125c-.02-.042-.042-.084-.062-.147a3.538 3.538 0 0 1-.292-1.508l.188.251c.062.147.166.335.27.545a.981.981 0 0 1 .104.21c.166.293.333.628.54.942.25.398.5.775.77 1.131 0 0-.312-.67-.416-1.11-.02-.126-.041-.23-.02-.293.02.02.041.062.083.083.02.021.041.063.083.084.041.063.104.147.187.252l.042.041c.041.042.062.105.104.147.041.063.083.126.145.189.437.565 1.04 1.32 1.456 1.717.145.126.27.23.353.273l-.603-1.09c1.373 1.132 7.071 2.577 12.665.964.687-.188 1.352-.44 2.018-.733.395-.168.79-.377 1.185-.587l.062-.042c.27-.146.541-.314.811-.481.208-.126.416-.273.604-.398.332-.23.665-.482.998-.755.02-.02.041-.041.062-.041.312-.273.624-.566.894-.86.375-.397.707-.795.999-1.193l.02-.021c.084-.105.146-.189.208-.294l.021-.02c.021-.043.042-.063.063-.105.104-.147.187-.273.29-.42.022-.041.042-.062.063-.104a1.41 1.41 0 0 1 .146-.23c.041-.063.062-.105.104-.168a.851.851 0 0 0 .104-.189c.062-.104.124-.23.187-.335l.062-.126.125-.25.062-.127.021-.041c.042-.105.104-.21.146-.315v-.02c.187-.168.312-.336.436-.482.021-.021.042-.042.042-.063.125-.398.208-.713.208-1.006m-33.461-4.064c0-.02 0-.042-.021-.084a9.514 9.514 0 0 1-.146-1.11v-.084c-.062.021-.125.105-.208.21-.02.042-.062.084-.083.146a6.87 6.87 0 0 0-.354.86c.021-.168.042-.336.042-.503v-.063l.062-.524v-.063c.021-.21.063-.398.104-.586 0-.021 0-.042.021-.084V32.7c0-.021 0-.042.021-.063 0-.042.02-.063.02-.105.022-.146.063-.293.084-.44.02-.125.042-.251.062-.356v-.042c0-.02 0-.042.021-.042v-.042c0-.02.021-.062.021-.083 0-.021 0-.042.02-.063 0-.042.022-.084.022-.105 0-.02.02-.063.02-.084 0-.042.021-.084.021-.104 0-.021 0-.042.021-.063 0-.021 0-.042.02-.042 0-.042.022-.063.022-.084v-.063l-.042.042c-.042.021-.062.063-.104.084l-.042.042a.555.555 0 0 0-.104.125l-.02.021-.125.189-.02.02c0 .022-.022.022-.022.043l-.062.125v.042c-.02.063-.063.126-.083.189-.063.167-.125.335-.167.482-.02.042-.02.104-.041.125-.021.084-.042.168-.042.189v.02-.02c0-.063 0-.105.02-.168 0-.104.022-.23.022-.335 0-.084.02-.188.041-.272 0-.021 0-.063.021-.084 0-.042.02-.084.02-.126 0-.042.022-.083.022-.125v-.063c0-.042.02-.105.02-.147v-.146c0-.021 0-.042.021-.063a.75.75 0 0 0 .042-.21v-.02c.02-.043.02-.105.041-.147v-.021c.021-.105.063-.21.084-.315v-.041c0-.021 0-.042.02-.063.042-.168.104-.335.146-.482v-.021c.042-.126.104-.272.146-.398v-.021c.02-.063.041-.105.062-.168.042-.083.062-.167.104-.251 0-.021.02-.063.062-.147.021-.02.021-.062.042-.083.02-.042.042-.084.062-.147l.021-.042.354-.65c.02-.02.02-.062.041-.083v-.021l.021-.042c.042-.063.083-.147.125-.21.062-.104.104-.209.166-.293.104-.188.187-.356.25-.44a.224.224 0 0 1 .062-.104c-.02 0-.125-.084-.291-.189a9.555 9.555 0 0 0-.853-.46c-.124-.064-.228-.106-.353-.168a11.546 11.546 0 0 0-.478-.189c-.042-.02-.084-.02-.125-.042-.146-.042-.27-.084-.416-.126-.104-.02-.208-.041-.291-.062-.084-.021-.167-.021-.25-.042-.041 0-.083 0-.125-.021-.041 0-.083 0-.124-.021-.104 0-.23-.021-.333-.021h-.167c-.25 0-.478.02-.707.063h-.041a6.015 6.015 0 0 0-1.206.314c-.125.042-.25.105-.396.167-.041.021-.062.042-.104.042l-.124.063c-.375.189-.728.44-1.061.712h-.02c-.292.23-.541.503-.77.776l-.187.251c-.084.105-.146.21-.208.314-.125.189-.25.398-.354.608-.041.084-.083.146-.104.23 0 .021-.02.021-.02.042-.209.503-.375 1.027-.437 1.592-.021.105-.021.21-.042.335v.042c0 .084-.02.168-.02.273v.377c0 .083 0 .167.02.251v.105c0 .063.02.125.02.188v.021c0 .042 0 .063.022.105 0 .063.02.126.02.168 0 .041.021.083.021.125.021.063.021.105.042.168a.3.3 0 0 0 .041.126v.02l.021.042v.042l.021.042c.02.042.02.084.042.126.02.042.02.105.041.147.021.041.042.083.042.146l.02.042c.021.042.021.063.042.105.02.042.042.084.063.146l.062.126c.02.021.02.042.042.063.02.02.02.042.041.063l.062.126c.021.041.042.104.084.146.02.042.041.084.062.105.02.042.062.105.083.147.021.041.042.062.063.104.02.042.062.105.104.147.02.042.041.063.062.084.042.042.062.104.104.146.02.021.042.063.062.084.042.042.084.105.125.147.021.02.042.042.063.084.041.041.083.104.124.146l.063.063c.041.042.083.105.145.147l.063.063.145.146c.021.021.042.042.063.042.041.042.104.084.166.147.02.02.042.02.062.042.063.042.104.083.167.125.02.021.041.021.041.042l.188.126.041.02.187.127.042.02c.062.042.145.084.208.126l.041.021a.969.969 0 0 0 .208.105l.042.02c.083.043.146.064.229.106l.02.02c.084.042.167.063.23.105h.02c.083.021.167.063.25.084h.02c.042.021.084.021.125.042.042.02.083.02.146.042h.02c.084.02.188.042.271.063.083.02.187.042.27.042.291.041.583.062.874.083h.208c.104 0 .187 0 .29-.02.126-.022.271-.022.417-.042.125-.021.25-.042.353-.063.188-.042.375-.084.541-.147.54-.147.998-.356 1.29-.587 0 0-.188-.837-.333-1.675-.042-.042-.063-.126-.083-.21" fill="#90694C"/><path d="M25.455 3.477l-.063-.837.416-.922.167-.042c-.27-.126-.603-.21-.978-.272-.748-.105-1.705 0-2.786.272-1.082.272-2.309.754-3.598 1.403-2.6 1.3-5.47 3.29-8.256 5.845a41.38 41.38 0 0 0-2.704 2.702c-.811.88-1.539 1.781-2.204 2.64-1.352 1.78-2.371 3.498-3.037 5.049-.436 1.026-.707 1.969-.81 2.786-.084.586-.063 1.11.04 1.529.043.147.084.251.126.377.104.251.228.461.395.65l1.684 1.78.188.189.02-.021a.635.635 0 0 1 .167-.168l.02-.02.063-.064c.041-.062.104-.104.145-.167a.366.366 0 0 1 .104-.084c.042-.021.063-.063.104-.084l.042-.042c.042-.02.062-.063.104-.084.042-.041.104-.083.146-.125.02-.021.062-.042.083-.063h.02c.063-.042.105-.084.167-.126.042-.02.062-.042.104-.084.062-.041.104-.083.166-.125.042-.021.063-.042.104-.063a.841.841 0 0 1 .187-.105c.042-.02.063-.042.104-.063.063-.042.125-.063.188-.104.041-.021.062-.042.104-.063l.041-.021c.395-1.11.998-2.346 1.789-3.603.956-1.55 2.183-3.185 3.639-4.819a41.028 41.028 0 0 1 2.995-3.037 44.226 44.226 0 0 1 4.242-3.436 36.738 36.738 0 0 1 2.808-1.801c.083-.042.166-.105.27-.147.25-.147.478-.272.728-.398.52-.272 1.04-.524 1.539-.733l-.25-.293-.041-.042-.312-.356-1.726-2.095.02-1.509-.02-.02 1.227-.378 2.329 1.194" fill="#2F83C1"/><path d="M45.565 38.671s.042-.314-.125-.607c0-.021-.02-.042-.02-.042L45.398 38l-.063-.063c-.041-.042-.083-.084-.145-.126-.021-.02-.063-.042-.104-.063-.104-.041-.208-.083-.354-.104-.104-.021-.208-.021-.333-.021h-.166v.042c0 .02.02.042.02.083 0 .021 0 .042.022.042.02.063.041.168.062.252 0 0 0 .02-.02.063v.02c-.063.147-.23.482-.604.901a2.08 2.08 0 0 1-.208.23c-1.04 1.09-3.286 2.62-8.027 3.478-1.602.23-3.099.252-4.347.084-1.871-.23-3.265-.838-3.93-1.655-.063-.063-.104-.147-.167-.21-.041-.062-.062-.104-.104-.167-.02-.021-.02-.042-.041-.063a3.322 3.322 0 0 1-.395-1.571c0-.65.208-1.257.54-1.718.27-.377.624-.67 1.061-.796.208-.063.437-.105.666-.084.041 0 .103 0 .187.021.145.021.374.042.644.084.021 0 .063 0 .084.021.894.105 2.308.251 4.013.147 3.12-.189 7.217-1.173 10.94-4.567v-.021c.02-.293-.022-.796-.375-1.194-.063-.063-.125-.126-.208-.189-.042-.042-.104-.063-.146-.104-.062-.021-.104-.063-.145-.084l-.187-.126v-.02a.439.439 0 0 0-.084-.127c-.956-1.466-2.287-2.325-2.828-2.723a3.055 3.055 0 0 0-.416-.272c-1.144-.712-1.31-.943-1.206-2.85.042-.69.104-1.591.187-2.827 0-.168.02-.315.02-.461v-.608c0-.104-.02-.21-.02-.293 0-.042 0-.084-.02-.126-.021-.104-.021-.21-.042-.314 0-.042-.021-.105-.021-.147 0-.062-.02-.104-.042-.167-.02-.042-.02-.105-.041-.147-.021-.063-.042-.125-.042-.188 0-.021-.02-.042-.02-.063 0-.021-.021-.042-.021-.063v-.02l-.021-.064c-.021-.042-.042-.084-.042-.125v-.021l-.02-.042-.021-.042c-.042-.084-.063-.168-.104-.23l-.021-.063c-.042-.063-.083-.147-.125-.21l-.02-.02-.022-.022c-.041-.042-.062-.084-.104-.126l-.041-.062a.91.91 0 0 0-.125-.147l-.166-.168c-.063-.042-.125-.083-.187-.104-.021-.021-.042-.021-.063-.021l-.125-.063c-.02 0-.041-.021-.062-.021-.042-.021-.083-.021-.104-.042-.02 0-.042-.021-.083-.021-.042 0-.063-.02-.104-.02h-.458c-.02 0-.041 0-.062.02-.02 0-.042 0-.062.021-.042 0-.084.02-.146.042h-.042c-.124.042-.228.084-.353.126l-.042.02c-.041.021-.083.042-.145.063l-.063.021-.125.063-.062.042-.125.063-.062.042c-.042.02-.083.063-.125.084l-.041.02c-.042.042-.104.063-.146.105l-.02.021c-.063.042-.105.084-.167.105-.104.063-.208.147-.312.21a3.042 3.042 0 0 1-.27.188l-.042.021a1.896 1.896 0 0 1-.27.168l-.042.02c-.083.063-.187.105-.27.168l-.042.021a1.267 1.267 0 0 1-.291.147l-.042.02c-.104.043-.187.084-.29.126l-.042.021c-.104.042-.208.063-.312.105h-.021c-.104.021-.229.042-.333.063-.187.02-.395.042-.582.042a7.58 7.58 0 0 1-.957-.063l-.312-.063c-.041 0-.083-.02-.104-.02-.27-.064-.561-.127-.832-.19-.124-.02-.228-.062-.353-.083-.187-.042-.375-.084-.583-.126-.041 0-.083-.02-.103-.02-.021 0-.063-.022-.084-.022-.041 0-.083-.02-.124-.02-.042 0-.084-.022-.125-.022h-.042c-.041 0-.083-.02-.104-.02-.083-.022-.166-.043-.27-.043-.021 0-.063 0-.083-.02-.063 0-.125-.021-.188-.021-.041 0-.062 0-.104-.021-.062 0-.103-.021-.166-.021h-.957c-.103 0-.187.02-.29.02h-.084c-.062 0-.125.022-.187.022h-.02c-.042 0-.063.02-.105.02-.062.021-.125.021-.187.042-.042 0-.083.021-.104.021a.603.603 0 0 1-.187.042c-.042 0-.063.021-.104.042-.062.021-.146.042-.208.063-.042.02-.062.02-.083.042-.104.042-.208.084-.291.126a6.623 6.623 0 0 0-1.997 1.801 7.864 7.864 0 0 0-.499.754 6.528 6.528 0 0 0-.416.86c-.041.083-.062.167-.104.25-.041.147-.104.294-.145.44 0 .021 0 .042-.021.042-.042.168-.083.336-.125.524a4.926 4.926 0 0 0-.083.545c-.021.105-.021.188-.021.293-.02.272-.02.524 0 .796v.063c0 .063 0 .126.02.21.022.188.042.377.084.565.02.063.042.126.042.21.02.062.02.125.041.188.125.482.312.922.54 1.299.854 1.487 2.268 2.388 3.307 2.87.396.167.812.335 1.248.482l-.041.042c-.083.02-.167.041-.27.062-.146.042-.333.105-.52.168-.209.063-.458.168-.708.272a8.253 8.253 0 0 0-2.08 1.215c-.082.063-.166.147-.249.21-.145.126-.27.251-.395.398l-.042.042-.062.063c-.042.062-.104.104-.146.167l-.062.063a1.748 1.748 0 0 0-.166.251c-.063.084-.104.168-.167.252-.395.691-.624 1.53-.561 2.535v-.042c0-.021 0-.042.02-.063v-.021c0-.021.021-.042.021-.084v-.02c0-.022.021-.064.021-.106 0-.041.021-.062.042-.104v-.021c.02-.042.02-.084.041-.126v-.02c.021-.043.021-.085.042-.127v-.02c.02-.042.042-.084.062-.147l.021-.021c.021-.042.042-.105.083-.147.042-.084.084-.146.125-.23.02-.021.042-.063.063-.084l.02-.021.125-.189c.042-.041.083-.104.125-.146l.041-.042c.042-.042.063-.084.104-.105l.042-.042c.042-.042.104-.083.146-.146 0 0-.895 2.053-.5 3.666v-.315c0-.041 0-.083.021-.125 0-.042 0-.084.021-.126v-.02c0-.043.02-.106.02-.148v-.041c.022-.063.022-.105.042-.168v-.021c.021-.063.042-.126.042-.168 0-.02.02-.041.02-.062l.022-.042c.02-.042.041-.105.062-.147.02-.063.062-.126.104-.188 0-.021.02-.042.02-.042l.126-.189s-.042.503-.042 1.11c0 .105 0 .189.02.294 0 .063 0 .125.022.188-.021.42-.021.838.02 1.278.063.733.25 1.53.562 2.346 0 0-.291-.942.125-1.885l.124.251c.042.273.084.67.167 1.11.083.734.416 2.933 1.913 4.463 0 0-.561-.734-.478-1.676.062.125.125.23.166.335.25.482.749 1.362 1.31 1.99 0 0-.436-.859-.332-1.047 0 0 1.455 1.822 1.913 1.99l-.603-1.006-.021-.02c2.1 1.55 5.012 2.115 8.589 1.11a16.103 16.103 0 0 0 1.913-.67c.395-.168.79-.378 1.186-.587l.062-.042c.27-.147.54-.315.811-.482.208-.126.416-.272.603-.398.333-.23.666-.482.998-.754.021-.021.042-.042.063-.042.312-.272.624-.566.894-.86.374-.397.707-.795.998-1.193l.021-.021c.083-.105.146-.189.208-.293l.02-.021c.022-.042.042-.063.063-.105.104-.147.187-.272.291-.419.021-.042.042-.063.063-.105a1.41 1.41 0 0 1 .145-.23c.042-.063.063-.105.104-.168a.851.851 0 0 0 .104-.188c.063-.105.125-.23.187-.336l.063-.125.125-.252.062-.125.02-.042c.042-.105.105-.21.146-.314v-.021c.188-.168.312-.336.437-.482.02-.021.042-.042.042-.063a1.56 1.56 0 0 0 .27-.88M11.937 33.33c-.062.021-.125.105-.208.21-.02.042-.062.084-.083.146a6.87 6.87 0 0 0-.354.86c.021-.168.042-.336.042-.503v-.063l.062-.524v-.063c.021-.21.063-.398.104-.586 0-.021 0-.042.021-.084V32.7c0-.021 0-.042.021-.063 0-.042.02-.063.02-.105.022-.146.063-.293.084-.44.02-.125.042-.251.062-.356v-.042c0-.02 0-.042.021-.042v-.042c0-.02.021-.062.021-.083 0-.021 0-.042.02-.063 0-.042.022-.084.022-.105 0-.02.02-.063.02-.084 0-.042.021-.084.021-.104 0-.021 0-.042.021-.063 0-.021 0-.042.02-.042 0-.042.022-.063.022-.084v-.063l-.042.042c-.042.021-.062.063-.104.084l-.042.042a.555.555 0 0 0-.104.125l-.02.021-.125.189-.02.02c0 .022-.022.022-.022.043l-.062.125v.042c-.02.063-.063.126-.083.189-.063.167-.125.335-.167.482-.02.042-.02.104-.041.125-.021.084-.042.168-.042.189v.02-.02c0-.063 0-.105.02-.168 0-.104.022-.23.022-.335 0-.084.02-.188.041-.272 0-.021 0-.063.021-.084 0-.042.02-.084.02-.126 0-.042.022-.083.022-.125v-.063c0-.042.02-.105.02-.147v-.146c0-.021 0-.042.021-.063a.75.75 0 0 0 .042-.21v-.02c.02-.043.02-.105.041-.147v-.021c.021-.105.063-.21.084-.315v-.041c0-.021 0-.042.02-.063.042-.168.104-.335.146-.482v-.021c.042-.126.104-.272.146-.398v-.021c.02-.063.041-.105.062-.168.042-.083.062-.167.104-.251 0-.021.02-.063.062-.147.021-.02.021-.062.042-.083.02-.042.042-.084.062-.147l.021-.042c-.02-.02-.062-.02-.083-.042h-.02l-.042-.02a5.152 5.152 0 0 0-.604-.231h-.041a2.926 2.926 0 0 0-.416-.084c-.083 0-.166-.021-.25-.021h-.208c-.104 0-.208.02-.312.02-.041 0-.062 0-.103.022-.042 0-.104.02-.146.02-.02 0-.042 0-.062.022-.042 0-.063.02-.104.02-.063.022-.146.043-.208.064-.021 0-.063.02-.084.02-.083.042-.187.063-.27.105-.042.021-.062.042-.104.042l-.125.063-.041.021c-.042.02-.083.042-.125.084-.042.02-.083.042-.125.084-.041.02-.083.062-.125.083-.02.021-.062.042-.083.063-.062.063-.145.126-.208.189l-.104.104c-.062.063-.104.126-.166.189l-.02.021c-.022.042-.063.063-.084.105l-.063.063a3.694 3.694 0 0 0-.29.481c-.021.021-.021.042-.042.063-.042.084-.063.168-.104.252-.021.041-.021.062-.042.104-.02.084-.062.168-.083.273v.083c-.02.063-.02.126-.042.189 0 .042 0 .063-.02.105 0 .042 0 .063-.021.104v.084c0 .105-.021.21 0 .315 0 .083 0 .167.02.25v.043c0 .042.021.084.021.125.021.168.063.315.104.482.042.126.084.23.125.335.083.21.187.399.312.587.25.377.582.712.978.964.207.146.457.251.707.335.228.084.478.146.748.167.063 0 .125.021.167.021h.27c.083 0 .166-.02.25-.02.041 0 .104 0 .145-.022.125-.02.229-.041.354-.062h.02c.042-.021.084-.021.146-.042.146-.042.291-.105.416-.168l.02-.02a.35.35 0 0 1 .105-.043 9.514 9.514 0 0 1-.146-1.11c.104-.042.104-.063.104-.084" fill="#FCE9CD"/><path d="M25.975 3.729l.075.05-.075-.05z" fill="#4D9ED7"/><path d="M44.296 37.812c0-.02 0-.042-.02-.042-.021-.042-.021-.062-.021-.083a3.011 3.011 0 0 0-.354-.776c-.145-.23-.27-.356-.27-.356l.062-.251c.021-.105.042-.21.042-.314a3.046 3.046 0 0 0-.27-1.676c-.021-.063-.042-.105-.063-.147-.125.084-.229.168-.353.252a18.063 18.063 0 0 1-7.487 2.932c-1.872.294-3.847.315-5.906.063l.041.021s-1.247.168-1.58 1.362l.02.02-.103.797c.041 1.09.52 1.76 1.081 2.116.582.23 1.29.398 2.08.502 1.351.168 2.932.126 4.513-.125 2.12-.294 5.115-1.425 7.257-2.891.479-.335.936-.691 1.31-1.048l.021-.02.021-.022c0-.146-.02-.23-.02-.314" fill="#FFF"/><g fill="#F2D2AC"><path d="M40.241 27.464c-1.144-.713-1.31-.943-1.206-2.85.042-.69.104-1.591.187-2.827 0-.168.02-.315.02-.461v-.608c0-.105-.02-.21-.02-.293 0-.042 0-.084-.02-.126-.021-.105-.021-.21-.042-.314 0-.042-.021-.105-.021-.147 0-.063-.02-.104-.042-.167-.02-.042-.02-.105-.041-.147a2.885 2.885 0 0 0-.583-.65l-.041-.041-.042-.021h-.02c-.042-.021-.063-.042-.105-.063a.454.454 0 0 1-.103-.063 3.005 3.005 0 0 0-1.124-.398c-.228-.042-.457-.042-.686-.042-.104 0-.229.021-.333.021a7.587 7.587 0 0 0-.894.189c-.104.063-.208.146-.312.21-.083.062-.166.125-.27.188l-.042.02a1.896 1.896 0 0 1-.27.168l-.042.021c-.083.063-.187.105-.27.168l-.042.02a1.267 1.267 0 0 1-.29.147l-.042.021c-.104.042-.187.084-.291.126l-.042.021c-.104.042-.208.063-.312.105h-.02c-.105.02-.23.042-.334.063-.187.02-.395.041-.582.041a7.58 7.58 0 0 1-.956-.062l-.312-.063c-.042 0-.084-.021-.104-.021-.27-.063-.562-.126-.832-.189-.125-.02-.229-.063-.354-.083a26.941 26.941 0 0 0-.582-.126c-.042 0-.083-.021-.104-.021-.166 0-.333.02-.478.042H28.2a6.926 6.926 0 0 0-1.414.335c-.021 0-.042.02-.083.02-.084.022-.146.064-.23.085-.103.042-.186.083-.29.125-.687.294-1.331.713-1.955 1.236-.25.21-.478.44-.707.67a9.265 9.265 0 0 0-.894 1.132c-.021.02-.021.042-.042.063-.146.21-.27.44-.374.65-.042.083-.084.167-.125.23v.02a6.298 6.298 0 0 0-.312.797c0 .02 0 .042-.02.042-.022.041-.022.083-.042.125a2.547 2.547 0 0 0-.104.377 2.24 2.24 0 0 0-.084.398c0 .021-.02.063-.02.084-.021.084-.021.168-.042.23-.042.294-.062.587-.083.88v.21c.125.482.312.922.54 1.299.853 1.487 2.267 2.388 3.307 2.87.395.167.811.335 1.248.481l.02.021.021-.02c.063-.042.104-.084.167-.126.02-.021.041-.021.062-.042l.187-.126c.021-.02.042-.02.063-.042l.187-.125c.02-.021.042-.021.062-.042.063-.042.125-.084.208-.126.021-.02.042-.02.063-.042.062-.042.145-.084.208-.126.02-.02.041-.02.062-.041.062-.042.146-.084.208-.126.02-.021.062-.021.083-.042.063-.042.146-.084.208-.126a.157.157 0 0 1 .083-.042c.063-.042.146-.083.23-.125.04-.021.062-.042.103-.042.083-.042.146-.084.229-.105.041-.02.062-.042.104-.042.083-.042.145-.063.229-.105l.124-.062c.084-.042.146-.063.23-.105.04-.021.082-.042.145-.063.083-.021.145-.063.228-.084.042-.02.104-.042.146-.063.083-.02.146-.063.229-.084.062-.02.104-.041.166-.062.083-.021.146-.063.229-.084l.187-.063c.063-.02.146-.042.208-.084.062-.02.146-.042.208-.063.062-.02.146-.042.208-.062.083-.021.166-.042.229-.063.062-.021.125-.042.208-.063.083-.021.166-.042.27-.084.042-.02.083-.02.125-.042.333-.859 1.352-2.996 3.078-3.226.187-.02.353-.042.52-.042h.124c-.02-.126-.041-.251-.041-.398-.063-.922.229-1.697.624-1.718.312-.02.561.44.603.587.125.272.208.628.229 1.026a3.7 3.7 0 0 1-.084.985c.042.042.063.084.104.105.396.502.458 1.173.437 1.676.146-.021.312-.021.478-.042.042 0 .084 0 .125-.021h.083c.188-.021.396-.042.604-.042.457-.042.915-.063 1.393-.084-.27-.147-.437-.23-.437-.23m4.347 12.904a12.871 12.871 0 0 1-2.33 1.655 15.402 15.402 0 0 1-3.556 1.383c-1.601.398-2.703.398-2.703.398.873.481 1.975.481 2.724.419.52-.042.873-.147.873-.147-.02.314-.062.607-.104.9a4.412 4.412 0 0 1-.25.839v.02a4.57 4.57 0 0 1-.457.839c-.02.02-.041.062-.062.083l.062-.042c.27-.146.541-.314.811-.481.208-.126.416-.273.604-.398.332-.23.665-.482.998-.755.02-.02.041-.041.062-.041.312-.273.624-.566.894-.86.375-.397.708-.795.999-1.193l.02-.021c.084-.105.146-.189.208-.294l.021-.02c.021-.043.042-.063.063-.105.104-.147.187-.273.29-.42.022-.041.042-.062.063-.104a1.41 1.41 0 0 1 .146-.23c.041-.063.062-.105.104-.168a.851.851 0 0 0 .104-.189c.062-.104.124-.23.187-.335l.062-.126.125-.25.062-.127.021-.041c.042-.105.104-.21.146-.315-.083.021-.125.063-.187.126M25.62 31.926c-.208.063-.457.167-.707.272a8.253 8.253 0 0 0-2.08 1.215c-.083.063-.166.147-.249.21-.146.125-.27.25-.395.398l-.042.041-.062.063c-.042.063-.104.105-.146.168l-.062.063c-.063.084-.125.167-.166.251-.063.084-.104.168-.167.251-.395.692-.624 1.53-.561 2.535v-.042c0-.02 0-.042.02-.062v-.021c0-.021.021-.042.021-.084v-.021c0-.021.021-.063.021-.105 0-.042.02-.063.042-.105v-.02c.02-.042.02-.084.041-.126v-.021c.021-.042.021-.084.042-.126v-.02c.02-.043.041-.085.062-.148l.021-.02c.02-.042.042-.105.083-.147.042-.084.083-.147.125-.23.02-.021.042-.063.062-.084l.021-.021.125-.189c.042-.042.083-.105.125-.146l.041-.042c.042-.042.063-.084.104-.105l.042-.042c.041-.042.104-.084.145-.147 0 0-.894 2.053-.499 3.666v-.314c0-.042 0-.084.021-.126 0-.041 0-.083.02-.125v-.021c0-.042.022-.105.022-.147v-.042c.02-.063.02-.104.041-.167v-.021a.651.651 0 0 0 .042-.168c0-.02.02-.042.02-.063l.021-.042c.021-.041.042-.104.063-.146.02-.063.062-.126.104-.189 0-.02.02-.042.02-.042l.125-.188s-.041.503-.041 1.11c0 .105 0 .189.02.293 0 .063 0 .126.021.189.042-.65.167-1.257.333-1.823.042-.146.104-.314.146-.46 0-.021.02-.042.02-.063.063-.147.105-.273.167-.42.02-.02.02-.041.042-.083.062-.126.124-.272.187-.398.02-.021.02-.042.02-.063.146-.272.292-.524.437-.754.021-.021.021-.042.042-.063.062-.084.125-.168.187-.272.02-.021.02-.042.042-.063.02-.021.02-.042.041-.063.083-.105.146-.21.229-.314.02-.021.02-.042.042-.042a3.64 3.64 0 0 1 .25-.293c.103-.126.207-.23.311-.357.083-.083.146-.167.229-.23l.083-.084c.166-.167.333-.335.5-.482.457-.419.83-.69.956-.775-.083.021-.167.042-.27.063a3.195 3.195 0 0 1-.5.189"/><path d="M37.6 27.38s0-.042-.02-.126c-.084-.293-.375-1.005-1.519-.9-1.206.125-1.622 1.11-1.726 1.445-.02.063-.02.105-.02.105l.04.02c.146-.125.437-.125.708.063.125.084.208.168.291.273.104.167.125.335.062.46l-.062.063s.042.021.125.042c.333.105 1.268.294 1.767-.356.021-.042.042-.063.063-.105-.104-.041-.146-.188-.146-.377 0-.083.021-.167.042-.272.062-.251.25-.398.395-.335m-6.01 8.966c-.79.167-1.477.293-1.997.377.021 0 .063 0 .084.02.894.106 2.308.252 4.013.148 3.12-.189 7.217-1.174 10.94-4.567v-.021c.02-.294-.022-.796-.375-1.194-.063-.063-.125-.126-.208-.189-.02 0-.02-.02-.042-.02-.104-.064-.187-.106-.27-.168l-.187-.126v-.021c-.229.335-.5.65-.79.943-.104.104-.208.21-.333.314-1.02.922-2.35 1.718-3.785 2.346-2.371 1.048-5.033 1.739-7.05 2.158m-19.715-5.468c-.042.021-.063.063-.104.084l-.042.042c-.041.042-.083.084-.104.126l-.02.02-.125.19-.021.02c0 .021-.02.021-.02.042l-.063.126v.042c-.021.062-.063.125-.084.188-.062.168-.124.335-.166.482-.02.042-.02.105-.041.126-.021.083-.042.167-.042.188v.021-.02c0-.064 0-.106.02-.168 0-.105.022-.23.022-.336 0-.083.02-.188.041-.272 0-.02 0-.063.02-.084 0-.042.022-.084.022-.125 0-.042.02-.084.02-.126v-.063c0-.042.021-.105.021-.147v-.146c0-.021 0-.042.021-.063a.75.75 0 0 0 .042-.21v-.02c.02-.042.02-.105.041-.147v-.021c.021-.105.063-.21.083-.314v-.042c0-.021 0-.042.021-.063.042-.168.104-.335.146-.482v-.02c.041-.127.104-.273.145-.399v-.02c.021-.064.042-.106.063-.168.041-.084.062-.168.104-.252 0-.02.02-.063.062-.146.021-.021.021-.063.042-.084.02-.042.041-.084.062-.147l.02-.042c-.02-.02-.061-.02-.082-.042h-.021l-.042-.02a5.152 5.152 0 0 0-.603-.231h-.041a2.926 2.926 0 0 0-.416-.084c-.083 0-.167-.02-.25-.02h-.208c-.104 0-.208.02-.312.02-.041 0-.062 0-.104.021-.041 0-.104.021-.145.021-.021 0-.042 0-.063.021-.041 0-.062.02-.104.02-.062.022-.145.043-.208.064-.02 0-.062.02-.083.02-.083.043-.187.064-.27.105-.042.021-.063.042-.104.042l-.125.063-.042.021a.435.435 0 0 0-.124.084c-.042.02-.083.042-.125.084-.042.02-.083.063-.125.084-.02.02-.062.041-.083.062-.062.063-.146.126-.208.189l-.104.105c-.062.063-.104.125-.166.188l-.021.021c-.02.042-.063.063-.083.105l-.063.063a3.694 3.694 0 0 0-.29.482c-.022.02-.022.041-.042.062-.042.084-.063.168-.104.252-.021.042-.021.063-.042.105 0 .02.02.041.02.062.022.084.042.147.063.23v.043c.02.063.063.146.083.21.084.209.167.397.27.565.021.02.021.042.042.063v.02l.021.022c.062.125.125.23.187.314.104.146.187.251.25.335l.041.042c0 .02.021.02.021.02l.042.043c0-.042-.021-.084-.021-.105a3.453 3.453 0 0 1-.083-.796v-.042c0-.168 0-.335.02-.482l.063.189c.02.084.062.167.083.251v.042c.125.356.27.65.416.88.166.293.312.482.416.607.02.021.042.042.042.063l.041.042a4.014 4.014 0 0 1-.104-.838v-.272c0-.126 0-.23.021-.335.042.188.104.377.166.544v.021c.23.608.5 1.048.687 1.32l.02.021a.439.439 0 0 1 .084.126c.02.02.041.042.041.063l.042.041.02.021v-.042c0-.041-.02-.083-.02-.125-.02-.147-.042-.293-.063-.42 0-.083-.02-.188-.02-.272V32.366c0-.105.02-.23.02-.336.021.063.042.147.063.21.02.042.041.105.062.147v.02l.021.021c.02.063.042.126.062.168.042.105.084.21.146.293.062.126.104.23.166.315.042.062.063.104.084.146.041.063.083.126.104.168.041.042.062.084.083.125l.02.021c.021.042.063.063.084.105.02.021.041.042.041.063.042.042.063.084.083.084l.021.02v-.062l.063-.524v-.063c.02-.21.062-.398.104-.586 0-.021 0-.042.02-.084v-.021c0-.02 0-.042.021-.063 0-.042.021-.063.021-.105.02-.146.062-.293.083-.44.021-.125.042-.25.063-.356v-.041c0-.021 0-.042.02-.042v-.042c0-.021.021-.063.021-.084 0-.021 0-.042.021-.063 0-.042.02-.084.02-.105 0-.02.022-.063.022-.083 0-.042.02-.084.02-.105 0-.021 0-.042.021-.063 0-.021 0-.042.021-.042 0-.042.02-.063.02-.084v-.063l.105.063m25.205 8.757c.291-.105.54-.189.749-.273.395-.167.603-.293.603-.335-.02-.042-.25-.02-.666.084-.208.042-.457.084-.77.168-.145.042-.311.063-.477.083-.167.021-.354.063-.541.084-.374.063-.79.105-1.248.147l-.686.063c-.229.02-.479.02-.728.042-.998.02-2.1-.021-3.224-.23a7.046 7.046 0 0 1-1.954-.692l-.021-.021c.333-1.194 1.58-1.362 1.58-1.362l-.041-.02h-.063c-.187-.022-.332-.043-.478-.064-.104-.02-.187-.02-.25-.041-.062 0-.124-.021-.145-.021-.749-.042-1.165.586-1.29.859l-.062.125a2.606 2.606 0 0 0-.208.838 2.34 2.34 0 0 0 .54 1.697c.292.356.791.67 1.436.922-.562-.356-1.06-1.048-1.082-2.116.645.272 1.373.44 1.934.545 1.186.23 2.35.251 3.37.188.25-.02.52-.042.748-.063.25-.042.479-.063.707-.084.458-.083.853-.146 1.248-.23a4.08 4.08 0 0 0 .54-.147c.188-.041.334-.083.48-.146"/></g><path d="M36.103 25.641c.624.021 1.04.21 1.33.503.063-.272.105-.608.084-.985a2.871 2.871 0 0 0-.229-1.026c-.042-.168-.291-.608-.603-.587-.395.021-.686.796-.624 1.718 0 .126.02.251.042.377m1.04 2.367c0 .168.062.315.145.377.146.084.333-.083.416-.356 0-.02.02-.042.02-.063.063-.251 0-.502-.145-.565-.145-.084-.333.084-.416.356 0 .084-.02.168-.02.251m-2.829.461c.063.105.167.21.291.293.27.168.562.189.728.042l.063-.062c.062-.126.041-.294-.063-.461a.737.737 0 0 0-.291-.273c-.27-.167-.561-.188-.707-.063-.02.021-.042.042-.062.084-.063.105-.042.273.041.44m10.336 3.834c-.02 0-.02 0 0 0m-.333 5.803a9.944 9.944 0 0 1-1.33 1.068c-2.143 1.466-5.137 2.618-7.259 2.89-1.601.252-3.16.294-4.513.127a9.189 9.189 0 0 1-2.08-.503c-.644-.252-1.143-.566-1.434-.922-.437-.524-.562-1.152-.54-1.697.02-.293.082-.586.207-.838l.063-.125c.145-.273.54-.922 1.289-.86.02 0 .083 0 .145.022.063 0 .167.02.25.041.146.021.291.042.478.063h.063c2.059.252 4.034.23 5.906-.063a18.063 18.063 0 0 0 7.487-2.932c.124-.084.228-.168.353-.252l1.227-1.843c-3.722 3.414-7.82 4.399-10.939 4.588-1.705.104-3.12-.021-4.013-.147-.042 0-.063 0-.084-.021-.27-.042-.478-.063-.644-.084-.084 0-.146-.02-.187-.02-.23-.022-.458.02-.666.083-.416.126-.79.419-1.06.796-.333.46-.541 1.09-.541 1.718 0 .524.124 1.068.395 1.571.02.021.02.042.041.063.042.063.063.105.104.167.042.063.104.147.167.21.644.817 2.059 1.403 3.93 1.655 1.269.167 2.745.147 4.347-.084 4.741-.859 6.987-2.409 8.027-3.477.083-.084.146-.147.208-.23.374-.44.54-.776.603-.902v-.02c.021-.042.021-.063.021-.063l-.02.02" fill="#664F44"/><path d="M29.24 21.556a1.9 1.9 0 0 0-.478-.188c-.104-.021-.208-.042-.333-.063-.042 0-.083 0-.125-.021-.562-.042-1.04.042-1.04.042-.104.02-.208.042-.291.083a3.306 3.306 0 0 0-1.643 1.09c-.291.377-.499.775-.603 1.173-.02.042-.02.063-.02.105-.022.104-.063.21-.084.293a5 5 0 0 0-.104.88c0 .335.02.544.02.544a7.11 7.11 0 0 1 .417-.796c.353-.607.728-1.11 1.123-1.508.748-.775 1.518-1.194 2.1-1.403.624-.21 1.06-.23 1.06-.23m9.006-1.07l-.021-.041a1.404 1.404 0 0 0-.312-.293c-.291-.189-.686-.294-1.227-.189 0 0-.645.147-1.02.587 0 0 1.124-.482 2.33.377.104.083.229.167.333.272.104.105.229.21.333.356 0 0-.042-.524-.354-.984-.02-.042-.042-.063-.062-.084" fill="#E9B784"/><path d="M29.385 28.825c.437-.125.895-.251 1.415-.377.083-.398.104-.88.041-1.403-.145-1.215-.686-2.158-1.227-2.095-.54.063-.852 1.11-.707 2.325.083.629.25 1.173.478 1.55" fill="#664F44"/><path d="M26.91 1.445l-1.122.252.228 2.053-2.974-1.53-1.227.378.021.02 3.619 4.148.041-.02.042-.021c.104-.063.229-.147.333-.21a.435.435 0 0 0 .125-.084c.166-.105.332-.21.499-.293l-1.54-1.78 2.476 1.214c.083-.042.145-.083.228-.125l-.228-1.781 1.123 1.32h.02c.104-.042.188-.105.291-.147l.042-.02.042-.022c.02 0 .041-.02.041-.02l.125-.064s.02 0 .02-.02c.126-.063.271-.126.396-.189l-2.62-3.059" fill="#FFD250"/><path d="M25.808 1.76v-.063.063m0-.063l.167-.042c-.27-.126-.603-.21-.978-.272-.748-.105-1.705 0-2.786.272-1.082.272-2.309.754-3.598 1.403-2.6 1.3-5.47 3.29-8.256 5.845a41.38 41.38 0 0 0-2.704 2.703l3.37 4.19a44.724 44.724 0 0 1 2.973-2.996A42.242 42.242 0 0 1 18.322 9.3a34.04 34.04 0 0 1 4.097-2.493l-.583-2.681.021-1.508-.02-.021 1.226-.377 2.392 1.236-.063-.838.416-.922" fill="#4D9ED7"/><path d="M25.808 1.697l-.416.922.063.858.582.294-.229-2.074zm-.852 2.66l2.495 1.236-.956.545-1.54-1.78zm2.495-.691l.23 1.78.893-.46-1.123-1.32z" fill="#132134"/><path d="M36.851 3.017h.458c.416 0 .81.062 1.185.146.021 0 .042 0 .063.021h.02l.042.021h.042c-.042-.02-.084-.063-.125-.084a5.474 5.474 0 0 0-1.31-.335c-2.246-.293-4.825.545-6.28 1.131-.084.042-.167.063-.25.105-.125.063-.25.105-.375.168-.208.084-.416.188-.644.293-.042.021-.063.021-.104.042-.125.063-.27.126-.396.188 0 0-.02 0-.02.021l-.125.063c-.02 0-.042.021-.042.021h-.083l-.02.021a1.896 1.896 0 0 0-.292.147h-.02c-.021.02-.042.02-.063.042h-.02c-.022 0-.042.02-.042.02-.146.084-.292.147-.437.231-.104.063-.208.105-.312.168h-.02c-.084.042-.146.083-.23.125-.25.126-.478.273-.728.42-.02.02-.041.02-.083.041-.02.021-.041.021-.062.042-.02.021-.042.021-.063.042l-.02.02c-.167.106-.333.19-.5.294a.435.435 0 0 0-.124.084c-.104.063-.229.147-.333.21l-.042.02-.041.021-.936.629c-.52.356-1.019.712-1.518 1.09-.063.041-.125.104-.187.146-1.31.984-2.558 2.053-3.764 3.142a74.064 74.064 0 0 0-3.64 3.582 50.009 50.009 0 0 0-1.58 1.655c-.874.943-1.352 1.53-1.331 1.55 0 0 .083-.062.228-.209l-.332.398c1.913-2.053 4.013-4.148 6.28-6.117a61.369 61.369 0 0 1 4.284-3.415c.645-.46 1.31-.921 1.976-1.361.208-.147.437-.273.645-.42.104-.062.208-.125.332-.188.063-.042.125-.084.188-.105.124-.062.228-.146.353-.209.104-.063.229-.126.333-.21.062-.041.125-.062.187-.104l.437-.252c.083-.042.166-.104.25-.146.27-.147.54-.294.831-.44.02-.021.042-.021.063-.042l.124-.063c.063-.02.104-.063.167-.084.02-.02.041-.02.062-.042l.125-.062s.02 0 .02-.021h.021c.125-.063.25-.126.354-.168.02 0 .042-.02.062-.042l.125-.063c.146-.063.27-.125.416-.188.042-.021.083-.042.104-.063.02 0 .042-.021.062-.021a.294.294 0 0 1 .125-.042c.167-.063.312-.147.479-.21.145-.062.27-.125.415-.188.79-.335 1.519-.608 2.205-.838 1.29-.356 2.433-.587 3.431-.628" fill="#FFF"/><g><path d="M92.41 32.882zm76.888 7.004h.039c2.315 0 3.944-1.611 3.962-3.917.009-1.142-.32-2.188-.925-2.943-.64-.8-1.535-1.225-2.59-1.234h-.02c-1.424 0-2.746 1.085-4.042 3.318l-.103.178-.066-.194c-.327-.957-.619-1.754-.793-2.231a11.597 11.597 0 0 1-.189-.53c-.062-.242-.267-.392-.537-.392a.956.956 0 0 0-.508.163.596.596 0 0 0-.29.407l-.008.025c-1.297 4.064-2.367 6.037-3.273 6.037a.4.4 0 0 1-.311-.13c-.237-.264-.18-.89-.099-1.758.06-.637.127-1.359.1-2.124-.054-1.472-.856-2.356-2.145-2.365-1.637-.001-2.699 1.751-3.188 2.796l-.146.311-.032-.343c-.122-1.293-.554-2.836-1.917-2.847-1.59 0-2.802 1.875-3.54 3.448l-.199.422.02-.465c.087-2.099.16-3.338.214-3.682.054-.344.026-.576-.087-.708-.106-.124-.307-.17-.601-.152-.51.033-.77.344-1.161 1.387-.644 1.714-2.282 5.7-3.59 5.7-.259-.001-.464-.09-.615-.264-.548-.63-.329-2.338-.025-4.7l.023-.18c.144-1.118-.101-1.357-.706-1.469a1.037 1.037 0 0 0-.184-.018c-.483 0-.709.465-1.16 1.757-.803 2.298-1.835 4.714-3.042 4.714a.84.84 0 0 1-.132-.01c-.64-.11-.626-1.063-.608-2.27.009-.653.02-1.394-.08-2.063-.18-1.2-.884-1.948-1.837-1.956-1.9 0-3.182 2.446-3.779 3.904l-.135.33-.045-.355a33.01 33.01 0 0 1-.23-2.818l-.002-.036.022-.027c3.557-4.5 5.153-7.746 5.175-10.527.013-1.777-.803-2.844-2.183-2.855-1.01 0-3.41.844-4.244 8.668a45.445 45.445 0 0 0-.252 4.422v.029l-.017.023c-1.627 2.367-5.101 6.438-8.502 6.438-3.072 0-5.524-2.497-5.524-6.906 0-5.91 4.164-9.538 7.297-9.538h.026c.681.005 1.265.196 1.689.552.44.37.67.889.665 1.5-.006.815-.27 1.235-.526 1.64-.066.104-.132.208-.192.318-.06.11-.115.271-.035.409.083.14.293.23.55.232.745 0 1.873-1.085 1.885-2.72.013-1.71-1.42-3.473-3.98-3.473-3.872 0-9.087 4.274-9.087 11.2 0 4.9 3.057 8.287 7.2 8.287 2.939 0 5.846-2.115 8.421-5.646l.158-.214.011.266c.055 1.292.148 2.31.216 3.055.044.478.076.823.075 1.014-.003.417.064.708.208.886.143.178.37.262.716.264.578 0 .694-.396.923-1.373l.066-.279c.285-1.184 1.336-5.05 2.917-5.05.258.003.457.08.599.23.349.372.31 1.136.267 2.02-.028.553-.056 1.123-.002 1.678.15 1.5.794 2.232 1.97 2.24 1.208.001 2.469-1.306 3.134-2.52l.126-.23.049.258c.123.65.672 2.784 2.391 2.784 1.558 0 2.895-1.649 4.36-5.042l.193-.443-.012.483c-.031 1.286-.1 2.856-.1 4.07-.001.94.093 1.298.525 1.298l.098.004c.414 0 .696-.248.836-.74 1.103-3.86 2.056-5.659 3-5.659.924.007 1.011 1.705 1.085 4.707l.005.21c.023 1.05.06 1.514.71 1.519.492 0 .614-.389.869-1.346.049-.182.101-.382.164-.598.89-3.104 1.628-4.37 2.547-4.37.787.006.83.821.845 1.089.03.573-.028 1.173-.085 1.753-.053.539-.107 1.096-.087 1.614.048 1.213.71 1.887 1.863 1.896 1.497 0 2.848-1.759 4.03-5.226l.083-.242.094.238c.215.545.494 1.283.753 2.163l.01.033-.015.032c-1.146 2.556-1.954 5.403-1.965 6.924-.016 2.003.886 3.305 2.298 3.316h.024c.768 0 2.558-.31 2.593-3.176.014-1.175-.262-2.837-.82-4.939l-.065-.24.206.137a4.27 4.27 0 0 0 2.328.737zm-38.576-9.722c.032-.718.092-1.418.178-2.08.554-4.261 1.71-7.238 2.812-7.238h.005c.526.004.789.404.783 1.187-.015 1.924-1.229 4.68-3.607 8.188l-.186.275.015-.332zm35.154 15.323a.86.86 0 0 1-.726.353c-.351-.003-.615-.125-.795-.367-.503-.675-.36-2.262.46-5.144.098-.344.204-.69.317-1.029l.095-.287.084.29c.956 3.327 1.146 5.407.565 6.184zm.298-8.522l-.018-.032-.035-.11.017-.033c1.09-2.258 2.34-3.552 3.427-3.552h.01c1.229.01 2.078 1.12 2.066 2.698-.008 1.054-.47 1.661-.857 1.984-.44.37-1.028.58-1.61.58-1.437-.01-2.423-.84-3-1.535zm3.39-3.632v-.001.001zm-72.94 6.18c1.684-.136 3.02-2.436 3.515-3.418l.128-.254.049.28c.238 1.382.986 3.704 3.327 3.723h.02c1.012 0 2.16-.623 3.322-1.8l.085-.086.062.104c.782 1.313 1.83 2.011 2.946 1.954 1.643-.086 2.64-1.256 2.729-2.068a.686.686 0 0 0-.15-.534c-.148-.166-.363-.185-.52-.033l-.075.071c-.383.37-1.096 1.057-1.872 1.098-.951.046-1.654-.525-2.109-1.704l-.019-.05.032-.04c2.615-3.437 4.45-8.68 4.269-12.196-.084-1.628-.555-3.568-2.324-3.568l-.132.004c-.678.035-1.294.36-1.832.964-1.641 1.845-2.5 6.386-2.188 11.57.064 1.076.25 2.083.553 2.99l.017.051-.035.041c-.97 1.14-1.927 1.767-2.696 1.767-1.848 0-1.786-3.114-1.64-5.696.032-.556.079-.911-.085-1.113-.117-.144-.313-.215-.6-.217h-.032c-.658 0-.796.135-1.132 1.116-.7 2.037-2.083 5.456-3.473 5.456-.385-.003-.68-.135-.88-.393-.675-.865-.163-3.022.248-4.755.074-.312.145-.611.206-.888.09-.41.062-.71-.082-.892-.145-.181-.435-.254-.816-.224-.596.048-.977.298-1.16 1.436l-.038.236-.138-.168c-.26-.386-.767-.845-1.708-.845-.082 0-.168.003-.256.01-1.004.083-2.148.786-2.984 1.835a6.162 6.162 0 0 0-1.314 4.365c.007.085.019.165.03.246l.007.044-.03.033c-.584.64-1.18.965-1.77.965-.91-.007-1.433-.687-1.433-1.82 0-1.907 1.286-7.655 1.286-9.736 0-2.215-.982-3.42-2.688-3.434h-.026c-2.49 0-4.432 2.84-6.29 8.681-.176.56-.347 1.123-.513 1.687l-.26.879.076-.913c.168-1.959.286-3.92.352-5.885.093-2.823-.287-4.64-1.161-5.554-.472-.494-1.095-.737-1.908-.743h-.02c-3.048 0-4.508 5.164-5.572 8.808-.32 1.1-.953 3.581-1.375 5.277l.25-.408c.188-2.136.73-7.486.695-10.389-.038-3.113-1.07-4.509-3.346-4.526h-.028c-1.216 0-2.06.607-2.553 1.116-.793.817-1.286 2.012-1.259 3.043.017.628.4 1.186.69 1.186.19 0 .294-.254.34-.405.704-2.339 1.615-3.476 2.785-3.476.485.004.846.147 1.116.44.914.984.747 3.643.446 8.472a314.231 314.231 0 0 0-.3 5.324c-.016.33-.035.662-.058.992-.088 1.393-.159 2.493.367 2.575.684.107 1.13-.172 1.357-.852.338-1.01 1.096-3.768 2.563-8.809 1.407-4.837 2.47-6.598 3.83-6.598 1.57 0 1.688 2.71 1.4 8.43-.062 1.213-.144 2.586-.207 4.08-.008.21-.018.414-.028.61-.06 1.238-.108 2.214.243 2.588.11.117.26.174.457.176.681 0 .886-.6 1.225-1.595.06-.175.124-.363.195-.558 2.333-6.468 4.059-12.08 6.375-12.08.695 0 1.235.567 1.235 1.672 0 2.552-1.242 7.484-1.242 9.984 0 .896.257 1.7.741 2.265.498.58 1.194.89 2.014.897h.018c.775 0 1.582-.379 2.4-1.124l.077-.07.061.083c.54.728 1.408 1.119 2.347 1.046 1.44-.113 2.647-1.4 3.097-2.615l.088-.237.087.237c.334.901 1.056 1.987 2.6 1.862zm13.265-16.9l.025-.001c.165 0 .31.082.429.246.572.776.58 3.61-.403 6.834-.562 1.843-1.317 3.583-2.184 5.033l-.139.231-.035-.267a29.526 29.526 0 0 1-.188-2.282c-.25-4.874 1.217-9.728 2.495-9.795zM93.917 34.001c-.503 2.036-1.47 4.494-3.211 4.635l-.142.006c-.723 0-1.128-.475-1.204-1.413-.096-1.173.407-2.547 1.282-3.501.557-.607 1.185-.942 1.769-.942h.011c.737.006 1.253.6 1.49 1.154l.013.029-.008.032zm8.08-7.467c-.644 0-1.163.51-1.168 1.135a1.152 1.152 0 0 0 1.15 1.152l.009.094v-.094c.634 0 1.153-.509 1.158-1.134a1.152 1.152 0 0 0-1.15-1.153zm40.426 0c-.643 0-1.162.51-1.167 1.135-.005.63.51 1.147 1.15 1.152l.009.094v-.094c.634 0 1.153-.509 1.158-1.134a1.153 1.153 0 0 0-1.15-1.153z" fill="#010101"/><path d="M173.905 38.595a.793.793 0 0 0 0 1.587.792.792 0 0 0 0-1.587zm0 1.472a.675.675 0 0 1-.675-.677.675.675 0 1 1 1.35 0 .675.675 0 0 1-.675.677zm.35-.885c0-.164-.08-.253-.286-.253h-.35v.914h.114v-.4h.164l.272.4h.129l-.272-.4c.123-.022.23-.092.23-.26zm-.375.158h-.146v-.31h.203c.098 0 .205.034.205.152-.001.152-.137.158-.262.158z" fill="#020202"/></g></g></svg>