<?xml version="1.0" encoding="UTF-8"?>
<svg width="67px" height="61px" viewBox="0 0 67 61" version="1.1" xmlns="http://www.w3.org/2000/svg" xmlns:xlink="http://www.w3.org/1999/xlink">
    <!-- Generator: Sketch 47.1 (45422) - http://www.bohemiancoding.com/sketch -->
    <title>webhook</title>
    <desc>Created with Sketch.</desc>
    <defs></defs>
    <g id="Page-1" stroke="none" stroke-width="1" fill="none" fill-rule="evenodd">
        <g id="webhook" fill-rule="nonzero" fill="#40A9FF">
            <path d="M51.7816315,47.0010299 L19.5217072,47.0010299 L19.5217072,50.4559241 C18.8950286,53.9974868 15.789,56.6881364 12.0516902,56.6881364 C7.86242976,56.6881364 4.46636326,53.3073819 4.46636326,49.1370096 C4.46636326,46.5636065 5.7594933,44.2908684 7.73417525,42.9276159 L5.55901963,39.834261 L5.55901963,39.834261 C2.60623797,41.8803896 0.673699811,45.2840329 0.673699811,49.1370096 C0.673699811,55.3925679 5.76779959,60.4636998 12.0516902,60.4636998 C17.6870538,60.4636998 22.365538,56.3852832 23.2711974,51.0316989 L23.2711974,51.0316989 L51.6281878,51.0316989 C52.284939,52.156407 53.5084819,52.912573 54.9094366,52.912573 C57.0040668,52.912573 58.7021001,51.2221957 58.7021001,49.1370096 C58.7021001,47.0518236 57.0040668,45.3614463 54.9094366,45.3614463 C53.6111982,45.3614463 52.4653101,46.0107948 51.7816315,47.0010299 Z" id="Shape"></path>
            <path d="M8.65796002,47.5658815 C8.72348745,47.4038764 8.80103855,47.2444721 8.89091595,47.0887999 C9.58774626,45.8818544 10.8493328,45.2044191 12.148551,45.1979297 L26.3711187,20.5637199 L26.3711187,20.5637199 C22.1801828,17.1053473 20.9758204,11.024955 23.7847848,6.15968593 C26.9156417,0.736882816 33.8467481,-1.12284164 39.2658444,2.00587507 C42.5928892,3.92674525 44.5765045,7.28133833 44.887678,10.8400816 L44.887678,10.8400816 L41.1242455,11.1700296 C40.9172889,8.79689042 39.5947748,6.55971805 37.3762051,5.27882627 C33.7634743,3.19301512 29.1427367,4.43283141 27.0554988,8.04803349 C25.0114282,11.5884675 26.1551871,16.0940872 29.5965548,18.237995 L31.6762542,19.4387101 L15.5674117,47.3400437 L15.5674117,47.3400437 C16.02517,48.2961043 16.0745378,49.4303151 15.6381861,50.4536854 C15.105763,51.8948577 13.7188108,52.9224166 12.0916951,52.9224166 C10.0044573,52.9224166 8.31241664,51.2315327 8.31241664,49.1457215 C8.31241664,48.5816874 8.43614565,48.0465321 8.65796002,47.5658815 Z" id="Shape"></path>
            <path d="M33.2674169,15.5641023 L49.2150295,43.1861776 L51.1142445,42.0896652 L51.1464506,42.1454478 C51.1621264,42.1362505 51.1778472,42.1271006 51.1936128,42.1179983 C54.8088547,40.0307374 59.414729,41.2401087 61.4811209,44.8192046 C63.5475129,48.3983005 62.291922,52.9917903 58.6766802,55.0790512 C56.4479624,56.365802 53.8427594,56.399683 51.6881406,55.3978592 L50.0794716,58.8044107 L50.0794716,58.8044107 C53.3085181,60.3001023 57.2094834,60.2464885 60.547447,58.3193144 C65.9703098,55.1884231 67.8536962,48.2981884 64.7541082,42.9295446 C61.955512,38.0822336 56.0515768,36.132678 50.9398277,38.1042566 L50.9398277,38.1042566 L36.789432,13.5950522 C37.3989664,12.4835477 37.4332551,11.0971812 36.7579384,9.92749834 C35.7247424,8.13795043 33.4218053,7.53326479 31.6141843,8.57689524 C29.8065634,9.62052562 29.1787679,11.9172705 30.2119639,13.7068185 C30.8686096,14.8441621 32.0381306,15.5029146 33.2674169,15.5641023 Z" id="Shape"></path>
        </g>
    </g>
</svg>